# Blender 4.5.3 LTS
# www.blender.org
mtllib Frutero.mtl
o Cube.031
v -16.382494 -0.000002 35.473137
v -16.487904 5.291281 35.359287
v -21.999971 -0.000002 35.473137
v -21.894562 7.497820 35.359287
v -16.382494 -0.000002 24.815056
v -16.487904 5.291281 24.928905
v -21.999971 -0.000002 24.815056
v -21.894562 7.497820 24.928905
v -16.382494 5.248261 35.473137
v -21.999971 7.540839 35.473137
v -21.999971 7.540839 24.815056
v -16.382494 5.248261 24.815056
v -16.593342 5.032926 35.359287
v -22.000000 7.239465 35.359287
v -22.000000 7.239465 24.928905
v -16.593342 5.032926 24.928905
v -16.687033 5.071166 35.278484
v -16.467773 5.777801 35.214481
v -18.095961 5.646171 35.278484
v -17.758184 6.304437 35.214481
v -16.687033 5.071166 33.151501
v -16.467773 5.777801 33.215504
v -18.095961 5.646171 33.151497
v -17.758183 6.304437 33.215504
v -16.408514 5.753616 35.278484
v -17.817442 6.328621 35.278484
v -17.817442 6.328621 33.151497
v -16.408514 5.753616 33.151501
v -16.718073 5.164494 35.214481
v -18.008484 5.691130 35.214481
v -18.008484 5.691130 33.215504
v -16.718073 5.164494 33.215504
v -18.262800 5.714261 27.091984
v -18.043541 6.420896 27.027979
v -21.522202 7.044472 27.091982
v -21.184423 7.702738 27.027979
v -18.262800 5.714261 24.964996
v -18.043539 6.420896 25.029001
v -21.522202 7.044472 24.964996
v -21.184423 7.702738 25.029001
v -17.984282 6.396711 27.091984
v -21.243683 7.726923 27.091982
v -21.243683 7.726923 24.964996
v -17.984282 6.396711 24.964996
v -18.293840 5.807589 27.027979
v -21.434725 7.089431 27.027979
v -21.434723 7.089431 25.029001
v -18.293840 5.807589 25.029001
v -18.179960 5.680454 33.657181
v -17.960701 6.387090 33.593178
v -21.439362 7.010665 33.657181
v -21.101585 7.668932 33.593178
v -18.179960 5.680454 31.530197
v -17.960701 6.387090 31.594200
v -21.439362 7.010665 31.530197
v -21.101583 7.668932 31.594200
v -17.901442 6.362905 33.657181
v -21.160843 7.693116 33.657181
v -21.160843 7.693116 31.530197
v -17.901442 6.362905 31.530197
v -18.211000 5.773782 33.593178
v -21.351885 7.055624 33.593178
v -21.351885 7.055624 31.594200
v -18.211000 5.773782 31.594200
v -16.603010 5.095594 27.140978
v -16.383751 5.802229 27.076973
v -18.011938 5.670599 27.140976
v -17.674160 6.328865 27.076973
v -16.603010 5.095594 25.013992
v -16.383749 5.802229 25.077995
v -18.011938 5.670599 25.013992
v -17.674160 6.328865 25.077995
v -16.324492 5.778045 27.140978
v -17.733419 6.353050 27.140976
v -17.733419 6.353050 25.013992
v -16.324492 5.778045 25.013992
v -16.634050 5.188922 27.076973
v -17.924461 5.715558 27.076973
v -17.924461 5.715558 25.077995
v -16.634050 5.188922 25.077995
v -18.088881 5.886424 35.133129
v -17.869621 6.593060 35.069126
v -19.497808 6.461429 35.133129
v -19.160032 7.119695 35.069126
v -18.088881 5.886424 33.664291
v -17.869621 6.593060 33.728298
v -19.497808 6.461429 33.664291
v -19.160032 7.119695 33.728298
v -17.810362 6.568875 35.133129
v -19.219290 7.143880 35.133129
v -19.219290 7.143880 33.664291
v -17.810362 6.568875 33.664291
v -18.119921 5.979752 35.069126
v -19.410332 6.506388 35.069126
v -19.410332 6.506388 33.728298
v -18.119921 5.979752 33.728298
v -19.650679 6.523818 35.133129
v -19.431419 7.230453 35.069126
v -21.059607 7.098823 35.133129
v -20.721830 7.757089 35.069126
v -19.650679 6.523818 33.664291
v -19.431419 7.230453 33.728298
v -21.059607 7.098823 33.664291
v -20.721828 7.757089 33.728298
v -19.372160 7.206269 35.133129
v -20.781088 7.781274 35.133129
v -20.781088 7.781274 33.664291
v -19.372160 7.206269 33.664291
v -19.681719 6.617146 35.069126
v -20.972130 7.143782 35.069126
v -20.972130 7.143782 33.728298
v -19.681719 6.617146 33.728298
v -16.621771 5.044533 31.529963
v -16.402512 5.751168 31.465960
v -19.881172 6.374744 31.529963
v -19.543394 7.033010 31.465960
v -16.621771 5.044533 29.402977
v -16.402512 5.751168 29.466980
v -19.881172 6.374744 29.402977
v -19.543394 7.033010 29.466980
v -16.343252 5.726984 31.529963
v -19.602654 7.057195 31.529963
v -19.602654 7.057195 29.402977
v -16.343252 5.726984 29.402977
v -16.652811 5.137861 31.465960
v -19.793695 6.419703 31.465960
v -19.793695 6.419703 29.466980
v -16.652811 5.137861 29.466980
v -16.524786 5.248093 33.025040
v -16.305527 5.954728 32.961037
v -17.933714 5.823098 33.025040
v -17.595936 6.481364 32.961037
v -16.524786 5.248093 31.556204
v -16.305527 5.954728 31.620209
v -17.933714 5.823098 31.556204
v -17.595936 6.481364 31.620207
v -16.246267 5.930544 33.025040
v -17.655195 6.505549 33.025040
v -17.655195 6.505549 31.556204
v -16.246267 5.930544 31.556204
v -16.555826 5.341421 32.961037
v -17.846237 5.868057 32.961037
v -17.846237 5.868057 31.620207
v -16.555826 5.341421 31.620209
v -18.142019 5.723686 29.315914
v -17.922760 6.430322 29.251909
v -19.550947 6.298691 29.315914
v -19.213169 6.956957 29.251909
v -18.142019 5.723686 27.188927
v -17.922760 6.430322 27.252932
v -19.550947 6.298691 27.188927
v -19.213169 6.956957 27.252932
v -17.863501 6.406137 29.315914
v -19.272429 6.981142 29.315914
v -19.272429 6.981142 27.188927
v -17.863501 6.406137 27.188927
v -18.173059 5.817014 29.251909
v -19.463470 6.343650 29.251909
v -19.463470 6.343650 27.252932
v -18.173059 5.817014 27.252932
v -19.814749 6.590773 31.108618
v -19.595490 7.297408 31.044615
v -21.223677 7.165778 31.108618
v -20.885899 7.824044 31.044615
v -19.814749 6.590773 29.639782
v -19.595490 7.297408 29.703785
v -21.223677 7.165778 29.639782
v -20.885899 7.824044 29.703785
v -19.536230 7.273223 31.108618
v -20.945158 7.848228 31.108618
v -20.945158 7.848228 29.639782
v -19.536230 7.273223 29.639782
v -19.845789 6.684101 31.044615
v -21.136200 7.210737 31.044615
v -21.136200 7.210737 29.703785
v -19.845789 6.684101 29.703785
v -19.553427 6.484125 29.002504
v -19.334167 7.190760 28.938499
v -20.962355 7.059130 29.002504
v -20.624577 7.717396 28.938499
v -19.553427 6.484125 27.533669
v -19.334167 7.190760 27.597672
v -20.962355 7.059130 27.533667
v -20.624577 7.717396 27.597672
v -19.274908 7.166575 29.002504
v -20.683836 7.741580 29.002504
v -20.683836 7.741580 27.533669
v -19.274908 7.166575 27.533669
v -19.584467 6.577453 28.938499
v -20.874878 7.104089 28.938499
v -20.874878 7.104089 27.597672
v -19.584467 6.577453 27.597672
v -16.587706 5.273771 28.914522
v -16.368446 5.980407 28.850517
v -17.996634 5.848776 28.914522
v -17.658855 6.507043 28.850517
v -16.587706 5.273771 27.445686
v -16.368446 5.980407 27.509689
v -17.996634 5.848776 27.445686
v -17.658855 6.507043 27.509689
v -16.309187 5.956222 28.914522
v -17.718115 6.531227 28.914522
v -17.718115 6.531227 27.445686
v -16.309187 5.956222 27.445686
v -16.618746 5.367099 28.850517
v -17.909157 5.893735 28.850517
v -17.909157 5.893735 27.509689
v -16.618746 5.367099 27.509689
vn -0.0000 -0.0000 1.0000
vn -1.0000 -0.0000 -0.0000
vn -0.0000 -0.0000 -1.0000
vn 1.0000 -0.0000 -0.0000
vn -0.0000 -1.0000 -0.0000
vn 0.3779 0.9259 -0.0000
vn -0.9259 0.3779 -0.0000
vn 0.9259 -0.3779 -0.0000
vn -0.3779 -0.9259 -0.0000
vt 0.375000 0.000000
vt 0.625000 0.000000
vt 0.625000 0.250000
vt 0.375000 0.250000
vt 0.625000 0.500000
vt 0.375000 0.500000
vt 0.625000 0.750000
vt 0.375000 0.750000
vt 0.625000 1.000000
vt 0.375000 1.000000
vt 0.125000 0.500000
vt 0.125000 0.750000
vt 0.627670 0.745309
vt 0.627670 0.504691
vt 0.872329 0.745309
vt 0.872329 0.504691
vt 0.875000 0.500000
vt 0.875000 0.750000
vt 0.632523 0.739485
vt 0.632523 0.510515
vt 0.867477 0.739485
vt 0.867477 0.510515
s 0
usemtl Material.017
f 1/1/1 9/2/1 10/3/1 3/4/1
f 3/4/2 10/3/2 11/5/2 7/6/2
f 7/6/3 11/5/3 12/7/3 5/8/3
f 5/8/4 12/7/4 9/9/4 1/10/4
f 3/11/5 7/6/5 5/8/5 1/12/5
f 6/13/1 8/14/1 15/14/1 16/13/1
f 2/15/6 4/16/6 10/17/6 9/18/6
f 4/16/6 8/14/6 11/5/6 10/17/6
f 8/14/6 6/13/6 12/7/6 11/5/6
f 6/13/6 2/15/6 9/18/6 12/7/6
f 15/14/6 14/16/6 13/15/6 16/13/6
f 4/16/3 2/15/3 13/15/3 14/16/3
f 2/15/7 6/13/7 16/13/7 13/15/7
f 8/14/8 4/16/8 14/16/8 15/14/8
usemtl Material.018
f 17/1/1 25/2/1 26/3/1 19/4/1
f 19/4/7 26/3/7 27/5/7 23/6/7
f 23/6/3 27/5/3 28/7/3 21/8/3
f 21/8/8 28/7/8 25/9/8 17/10/8
f 19/11/9 23/6/9 21/8/9 17/12/9
f 22/19/1 24/20/1 31/20/1 32/19/1
f 18/21/6 20/22/6 26/17/6 25/18/6
f 20/22/6 24/20/6 27/5/6 26/17/6
f 24/20/6 22/19/6 28/7/6 27/5/6
f 22/19/6 18/21/6 25/18/6 28/7/6
f 31/20/6 30/22/6 29/21/6 32/19/6
f 20/22/3 18/21/3 29/21/3 30/22/3
f 18/21/7 22/19/7 32/19/7 29/21/7
f 24/20/8 20/22/8 30/22/8 31/20/8
f 33/1/1 41/2/1 42/3/1 35/4/1
f 35/4/7 42/3/7 43/5/7 39/6/7
f 39/6/3 43/5/3 44/7/3 37/8/3
f 37/8/8 44/7/8 41/9/8 33/10/8
f 35/11/9 39/6/9 37/8/9 33/12/9
f 38/19/1 40/20/1 47/20/1 48/19/1
f 34/21/6 36/22/6 42/17/6 41/18/6
f 36/22/6 40/20/6 43/5/6 42/17/6
f 40/20/6 38/19/6 44/7/6 43/5/6
f 38/19/6 34/21/6 41/18/6 44/7/6
f 47/20/6 46/22/6 45/21/6 48/19/6
f 36/22/3 34/21/3 45/21/3 46/22/3
f 34/21/7 38/19/7 48/19/7 45/21/7
f 40/20/8 36/22/8 46/22/8 47/20/8
f 49/1/1 57/2/1 58/3/1 51/4/1
f 51/4/7 58/3/7 59/5/7 55/6/7
f 55/6/3 59/5/3 60/7/3 53/8/3
f 53/8/8 60/7/8 57/9/8 49/10/8
f 51/11/9 55/6/9 53/8/9 49/12/9
f 54/19/1 56/20/1 63/20/1 64/19/1
f 50/21/6 52/22/6 58/17/6 57/18/6
f 52/22/6 56/20/6 59/5/6 58/17/6
f 56/20/6 54/19/6 60/7/6 59/5/6
f 54/19/6 50/21/6 57/18/6 60/7/6
f 63/20/6 62/22/6 61/21/6 64/19/6
f 52/22/3 50/21/3 61/21/3 62/22/3
f 50/21/7 54/19/7 64/19/7 61/21/7
f 56/20/8 52/22/8 62/22/8 63/20/8
f 65/1/1 73/2/1 74/3/1 67/4/1
f 67/4/7 74/3/7 75/5/7 71/6/7
f 71/6/3 75/5/3 76/7/3 69/8/3
f 69/8/8 76/7/8 73/9/8 65/10/8
f 67/11/9 71/6/9 69/8/9 65/12/9
f 70/19/1 72/20/1 79/20/1 80/19/1
f 66/21/6 68/22/6 74/17/6 73/18/6
f 68/22/6 72/20/6 75/5/6 74/17/6
f 72/20/6 70/19/6 76/7/6 75/5/6
f 70/19/6 66/21/6 73/18/6 76/7/6
f 79/20/6 78/22/6 77/21/6 80/19/6
f 68/22/3 66/21/3 77/21/3 78/22/3
f 66/21/7 70/19/7 80/19/7 77/21/7
f 72/20/8 68/22/8 78/22/8 79/20/8
f 81/1/1 89/2/1 90/3/1 83/4/1
f 83/4/7 90/3/7 91/5/7 87/6/7
f 87/6/3 91/5/3 92/7/3 85/8/3
f 85/8/8 92/7/8 89/9/8 81/10/8
f 83/11/9 87/6/9 85/8/9 81/12/9
f 86/19/1 88/20/1 95/20/1 96/19/1
f 82/21/6 84/22/6 90/17/6 89/18/6
f 84/22/6 88/20/6 91/5/6 90/17/6
f 88/20/6 86/19/6 92/7/6 91/5/6
f 86/19/6 82/21/6 89/18/6 92/7/6
f 95/20/6 94/22/6 93/21/6 96/19/6
f 84/22/3 82/21/3 93/21/3 94/22/3
f 82/21/7 86/19/7 96/19/7 93/21/7
f 88/20/8 84/22/8 94/22/8 95/20/8
f 97/1/1 105/2/1 106/3/1 99/4/1
f 99/4/7 106/3/7 107/5/7 103/6/7
f 103/6/3 107/5/3 108/7/3 101/8/3
f 101/8/8 108/7/8 105/9/8 97/10/8
f 99/11/9 103/6/9 101/8/9 97/12/9
f 102/19/1 104/20/1 111/20/1 112/19/1
f 98/21/6 100/22/6 106/17/6 105/18/6
f 100/22/6 104/20/6 107/5/6 106/17/6
f 104/20/6 102/19/6 108/7/6 107/5/6
f 102/19/6 98/21/6 105/18/6 108/7/6
f 111/20/6 110/22/6 109/21/6 112/19/6
f 100/22/3 98/21/3 109/21/3 110/22/3
f 98/21/7 102/19/7 112/19/7 109/21/7
f 104/20/8 100/22/8 110/22/8 111/20/8
f 113/1/1 121/2/1 122/3/1 115/4/1
f 115/4/7 122/3/7 123/5/7 119/6/7
f 119/6/3 123/5/3 124/7/3 117/8/3
f 117/8/8 124/7/8 121/9/8 113/10/8
f 115/11/9 119/6/9 117/8/9 113/12/9
f 118/19/1 120/20/1 127/20/1 128/19/1
f 114/21/6 116/22/6 122/17/6 121/18/6
f 116/22/6 120/20/6 123/5/6 122/17/6
f 120/20/6 118/19/6 124/7/6 123/5/6
f 118/19/6 114/21/6 121/18/6 124/7/6
f 127/20/6 126/22/6 125/21/6 128/19/6
f 116/22/3 114/21/3 125/21/3 126/22/3
f 114/21/7 118/19/7 128/19/7 125/21/7
f 120/20/8 116/22/8 126/22/8 127/20/8
f 129/1/1 137/2/1 138/3/1 131/4/1
f 131/4/7 138/3/7 139/5/7 135/6/7
f 135/6/3 139/5/3 140/7/3 133/8/3
f 133/8/8 140/7/8 137/9/8 129/10/8
f 131/11/9 135/6/9 133/8/9 129/12/9
f 134/19/1 136/20/1 143/20/1 144/19/1
f 130/21/6 132/22/6 138/17/6 137/18/6
f 132/22/6 136/20/6 139/5/6 138/17/6
f 136/20/6 134/19/6 140/7/6 139/5/6
f 134/19/6 130/21/6 137/18/6 140/7/6
f 143/20/6 142/22/6 141/21/6 144/19/6
f 132/22/3 130/21/3 141/21/3 142/22/3
f 130/21/7 134/19/7 144/19/7 141/21/7
f 136/20/8 132/22/8 142/22/8 143/20/8
f 145/1/1 153/2/1 154/3/1 147/4/1
f 147/4/7 154/3/7 155/5/7 151/6/7
f 151/6/3 155/5/3 156/7/3 149/8/3
f 149/8/8 156/7/8 153/9/8 145/10/8
f 147/11/9 151/6/9 149/8/9 145/12/9
f 150/19/1 152/20/1 159/20/1 160/19/1
f 146/21/6 148/22/6 154/17/6 153/18/6
f 148/22/6 152/20/6 155/5/6 154/17/6
f 152/20/6 150/19/6 156/7/6 155/5/6
f 150/19/6 146/21/6 153/18/6 156/7/6
f 159/20/6 158/22/6 157/21/6 160/19/6
f 148/22/3 146/21/3 157/21/3 158/22/3
f 146/21/7 150/19/7 160/19/7 157/21/7
f 152/20/8 148/22/8 158/22/8 159/20/8
f 161/1/1 169/2/1 170/3/1 163/4/1
f 163/4/7 170/3/7 171/5/7 167/6/7
f 167/6/3 171/5/3 172/7/3 165/8/3
f 165/8/8 172/7/8 169/9/8 161/10/8
f 163/11/9 167/6/9 165/8/9 161/12/9
f 166/19/1 168/20/1 175/20/1 176/19/1
f 162/21/6 164/22/6 170/17/6 169/18/6
f 164/22/6 168/20/6 171/5/6 170/17/6
f 168/20/6 166/19/6 172/7/6 171/5/6
f 166/19/6 162/21/6 169/18/6 172/7/6
f 175/20/6 174/22/6 173/21/6 176/19/6
f 164/22/3 162/21/3 173/21/3 174/22/3
f 162/21/7 166/19/7 176/19/7 173/21/7
f 168/20/8 164/22/8 174/22/8 175/20/8
f 177/1/1 185/2/1 186/3/1 179/4/1
f 179/4/7 186/3/7 187/5/7 183/6/7
f 183/6/3 187/5/3 188/7/3 181/8/3
f 181/8/8 188/7/8 185/9/8 177/10/8
f 179/11/9 183/6/9 181/8/9 177/12/9
f 182/19/1 184/20/1 191/20/1 192/19/1
f 178/21/6 180/22/6 186/17/6 185/18/6
f 180/22/6 184/20/6 187/5/6 186/17/6
f 184/20/6 182/19/6 188/7/6 187/5/6
f 182/19/6 178/21/6 185/18/6 188/7/6
f 191/20/6 190/22/6 189/21/6 192/19/6
f 180/22/3 178/21/3 189/21/3 190/22/3
f 178/21/7 182/19/7 192/19/7 189/21/7
f 184/20/8 180/22/8 190/22/8 191/20/8
f 193/1/1 201/2/1 202/3/1 195/4/1
f 195/4/7 202/3/7 203/5/7 199/6/7
f 199/6/3 203/5/3 204/7/3 197/8/3
f 197/8/8 204/7/8 201/9/8 193/10/8
f 195/11/9 199/6/9 197/8/9 193/12/9
f 198/19/1 200/20/1 207/20/1 208/19/1
f 194/21/6 196/22/6 202/17/6 201/18/6
f 196/22/6 200/20/6 203/5/6 202/17/6
f 200/20/6 198/19/6 204/7/6 203/5/6
f 198/19/6 194/21/6 201/18/6 204/7/6
f 207/20/6 206/22/6 205/21/6 208/19/6
f 196/22/3 194/21/3 205/21/3 206/22/3
f 194/21/7 198/19/7 208/19/7 205/21/7
f 200/20/8 196/22/8 206/22/8 207/20/8
