# Blender 4.5.3 LTS
# www.blender.org
mtllib tickets.mtl
o Cube.020
v 20.045055 -0.001262 56.505363
v 20.045055 4.582884 56.505363
v 20.045057 -0.001262 60.310547
v 20.045057 4.582884 60.310547
v 10.629404 -0.001262 56.505363
v 10.629404 4.582884 56.505363
v 10.629405 -0.001262 60.310547
v 10.629405 4.582884 60.310547
vn 1.0000 -0.0000 -0.0000
vn -0.0000 -0.0000 1.0000
vn -1.0000 -0.0000 -0.0000
vn -0.0000 -0.0000 -1.0000
vn -0.0000 -1.0000 -0.0000
vn -0.0000 1.0000 -0.0000
vt 0.375000 0.000000
vt 0.625000 0.000000
vt 0.625000 0.250000
vt 0.375000 0.250000
vt 0.625000 0.500000
vt 0.375000 0.500000
vt 0.625000 0.750000
vt 0.375000 0.750000
vt 0.625000 1.000000
vt 0.375000 1.000000
vt 0.125000 0.500000
vt 0.125000 0.750000
vt 0.875000 0.500000
vt 0.875000 0.750000
s 0
f 1/1/1 2/2/1 4/3/1 3/4/1
f 3/4/2 4/3/2 8/5/2 7/6/2
f 7/6/3 8/5/3 6/7/3 5/8/3
f 5/8/4 6/7/4 2/9/4 1/10/4
f 3/11/5 7/6/5 5/8/5 1/12/5
f 8/5/6 4/13/6 2/14/6 6/7/6
o Cylinder
v 11.275955 4.542320 59.010136
v 11.275955 10.548162 59.010136
v 11.234468 4.542320 59.000668
v 11.234468 10.548162 59.000668
v 11.201196 4.542320 58.974136
v 11.201196 10.548162 58.974136
v 11.182733 4.542320 58.935795
v 11.182733 10.548162 58.935795
v 11.182733 4.542320 58.893238
v 11.182733 10.548162 58.893238
v 11.201196 4.542320 58.854897
v 11.201196 10.548162 58.854897
v 11.234468 4.542320 58.828365
v 11.234468 10.548162 58.828365
v 11.275955 4.542320 58.818897
v 11.275955 10.548162 58.818897
v 11.317443 4.542320 58.828365
v 11.317443 10.548162 58.828365
v 11.350715 4.542320 58.854897
v 11.350715 10.548162 58.854897
v 11.369178 4.542320 58.893238
v 11.369178 10.548162 58.893238
v 11.369178 4.542320 58.935795
v 11.369178 10.548162 58.935795
v 11.350715 4.542320 58.974136
v 11.350715 10.548162 58.974136
v 11.317443 4.542320 59.000668
v 11.317443 10.548162 59.000668
vn -0.2225 -0.0000 0.9749
vn -0.6235 -0.0000 0.7818
vn -0.9010 -0.0000 0.4339
vn -1.0000 -0.0000 -0.0000
vn -0.9010 -0.0000 -0.4339
vn -0.6235 -0.0000 -0.7818
vn -0.2225 -0.0000 -0.9749
vn 0.2225 -0.0000 -0.9749
vn 0.6235 -0.0000 -0.7818
vn 0.9010 -0.0000 -0.4339
vn 1.0000 -0.0000 -0.0000
vn 0.9010 -0.0000 0.4339
vn -0.0000 1.0000 -0.0000
vn 0.6235 -0.0000 0.7818
vn 0.2225 -0.0000 0.9749
vn -0.0000 -1.0000 -0.0000
vt 1.000000 0.500000
vt 1.000000 1.000000
vt 0.928571 1.000000
vt 0.928571 0.500000
vt 0.857143 1.000000
vt 0.857143 0.500000
vt 0.785714 1.000000
vt 0.785714 0.500000
vt 0.714286 1.000000
vt 0.714286 0.500000
vt 0.642857 1.000000
vt 0.642857 0.500000
vt 0.571428 1.000000
vt 0.571428 0.500000
vt 0.500000 1.000000
vt 0.500000 0.500000
vt 0.428571 1.000000
vt 0.428571 0.500000
vt 0.357143 1.000000
vt 0.357143 0.500000
vt 0.285714 1.000000
vt 0.285714 0.500000
vt 0.214286 1.000000
vt 0.214286 0.500000
vt 0.142857 1.000000
vt 0.142857 0.500000
vt 0.354132 0.466233
vt 0.250000 0.490000
vt 0.145868 0.466233
vt 0.062360 0.399638
vt 0.016017 0.303405
vt 0.016017 0.196595
vt 0.062360 0.100362
vt 0.145868 0.033767
vt 0.250000 0.010000
vt 0.354132 0.033767
vt 0.437640 0.100362
vt 0.483983 0.196595
vt 0.483983 0.303405
vt 0.437640 0.399638
vt 0.071428 1.000000
vt 0.071428 0.500000
vt -0.000000 1.000000
vt -0.000000 0.500000
vt 0.750000 0.490000
vt 0.854132 0.466233
vt 0.937640 0.399638
vt 0.983983 0.303405
vt 0.983983 0.196595
vt 0.937640 0.100362
vt 0.854132 0.033767
vt 0.750000 0.010000
vt 0.645868 0.033767
vt 0.562360 0.100362
vt 0.516017 0.196595
vt 0.516017 0.303405
vt 0.562360 0.399638
vt 0.645868 0.466233
s 0
f 9/15/7 10/16/7 12/17/7 11/18/7
f 11/18/8 12/17/8 14/19/8 13/20/8
f 13/20/9 14/19/9 16/21/9 15/22/9
f 15/22/10 16/21/10 18/23/10 17/24/10
f 17/24/11 18/23/11 20/25/11 19/26/11
f 19/26/12 20/25/12 22/27/12 21/28/12
f 21/28/13 22/27/13 24/29/13 23/30/13
f 23/30/14 24/29/14 26/31/14 25/32/14
f 25/32/15 26/31/15 28/33/15 27/34/15
f 27/34/16 28/33/16 30/35/16 29/36/16
f 29/36/17 30/35/17 32/37/17 31/38/17
f 31/38/18 32/37/18 34/39/18 33/40/18
f 12/41/19 10/42/19 36/43/19 34/44/19 32/45/19 30/46/19 28/47/19 26/48/19 24/49/19 22/50/19 20/51/19 18/52/19 16/53/19 14/54/19
f 33/40/20 34/39/20 36/55/20 35/56/20
f 35/56/21 36/55/21 10/57/21 9/58/21
f 9/59/22 11/60/22 13/61/22 15/62/22 17/63/22 19/64/22 21/65/22 23/66/22 25/67/22 27/68/22 29/69/22 31/70/22 33/71/22 35/72/22
o Cylinder.001
v 19.412189 4.542320 59.010136
v 19.412189 10.548162 59.010136
v 19.370701 4.542320 59.000668
v 19.370701 10.548162 59.000668
v 19.337431 4.542320 58.974136
v 19.337431 10.548162 58.974136
v 19.318966 4.542320 58.935795
v 19.318966 10.548162 58.935795
v 19.318966 4.542320 58.893238
v 19.318966 10.548162 58.893238
v 19.337431 4.542320 58.854897
v 19.337431 10.548162 58.854897
v 19.370701 4.542320 58.828365
v 19.370701 10.548162 58.828365
v 19.412189 4.542320 58.818897
v 19.412189 10.548162 58.818897
v 19.453678 4.542320 58.828365
v 19.453678 10.548162 58.828365
v 19.486948 4.542320 58.854897
v 19.486948 10.548162 58.854897
v 19.505413 4.542320 58.893238
v 19.505413 10.548162 58.893238
v 19.505413 4.542320 58.935795
v 19.505413 10.548162 58.935795
v 19.486948 4.542320 58.974136
v 19.486948 10.548162 58.974136
v 19.453678 4.542320 59.000668
v 19.453678 10.548162 59.000668
vn -0.2225 -0.0000 0.9749
vn -0.6235 -0.0000 0.7818
vn -0.9010 -0.0000 0.4339
vn -1.0000 -0.0000 -0.0000
vn -0.9010 -0.0000 -0.4339
vn -0.6235 -0.0000 -0.7818
vn -0.2225 -0.0000 -0.9749
vn 0.2225 -0.0000 -0.9749
vn 0.6235 -0.0000 -0.7818
vn 0.9010 -0.0000 -0.4339
vn 1.0000 -0.0000 -0.0000
vn 0.9010 -0.0000 0.4339
vn -0.0000 1.0000 -0.0000
vn 0.6235 -0.0000 0.7818
vn 0.2225 -0.0000 0.9749
vn -0.0000 -1.0000 -0.0000
vt 1.000000 0.500000
vt 1.000000 1.000000
vt 0.928571 1.000000
vt 0.928571 0.500000
vt 0.857143 1.000000
vt 0.857143 0.500000
vt 0.785714 1.000000
vt 0.785714 0.500000
vt 0.714286 1.000000
vt 0.714286 0.500000
vt 0.642857 1.000000
vt 0.642857 0.500000
vt 0.571428 1.000000
vt 0.571428 0.500000
vt 0.500000 1.000000
vt 0.500000 0.500000
vt 0.428571 1.000000
vt 0.428571 0.500000
vt 0.357143 1.000000
vt 0.357143 0.500000
vt 0.285714 1.000000
vt 0.285714 0.500000
vt 0.214286 1.000000
vt 0.214286 0.500000
vt 0.142857 1.000000
vt 0.142857 0.500000
vt 0.354132 0.466233
vt 0.250000 0.490000
vt 0.145868 0.466233
vt 0.062360 0.399638
vt 0.016017 0.303405
vt 0.016017 0.196595
vt 0.062360 0.100362
vt 0.145868 0.033767
vt 0.250000 0.010000
vt 0.354132 0.033767
vt 0.437640 0.100362
vt 0.483983 0.196595
vt 0.483983 0.303405
vt 0.437640 0.399638
vt 0.071428 1.000000
vt 0.071428 0.500000
vt -0.000000 1.000000
vt -0.000000 0.500000
vt 0.750000 0.490000
vt 0.854132 0.466233
vt 0.937640 0.399638
vt 0.983983 0.303405
vt 0.983983 0.196595
vt 0.937640 0.100362
vt 0.854132 0.033767
vt 0.750000 0.010000
vt 0.645868 0.033767
vt 0.562360 0.100362
vt 0.516017 0.196595
vt 0.516017 0.303405
vt 0.562360 0.399638
vt 0.645868 0.466233
s 0
f 37/73/23 38/74/23 40/75/23 39/76/23
f 39/76/24 40/75/24 42/77/24 41/78/24
f 41/78/25 42/77/25 44/79/25 43/80/25
f 43/80/26 44/79/26 46/81/26 45/82/26
f 45/82/27 46/81/27 48/83/27 47/84/27
f 47/84/28 48/83/28 50/85/28 49/86/28
f 49/86/29 50/85/29 52/87/29 51/88/29
f 51/88/30 52/87/30 54/89/30 53/90/30
f 53/90/31 54/89/31 56/91/31 55/92/31
f 55/92/32 56/91/32 58/93/32 57/94/32
f 57/94/33 58/93/33 60/95/33 59/96/33
f 59/96/34 60/95/34 62/97/34 61/98/34
f 40/99/35 38/100/35 64/101/35 62/102/35 60/103/35 58/104/35 56/105/35 54/106/35 52/107/35 50/108/35 48/109/35 46/110/35 44/111/35 42/112/35
f 61/98/36 62/97/36 64/113/36 63/114/36
f 63/114/37 64/113/37 38/115/37 37/116/37
f 37/117/38 39/118/38 41/119/38 43/120/38 45/121/38 47/122/38 49/123/38 51/124/38 53/125/38 55/126/38 57/127/38 59/128/38 61/129/38 63/130/38
o Cube.022
v 17.540201 4.577425 57.709656
v 17.540201 5.443723 58.225395
v 17.540201 4.577425 58.741135
v 15.765017 4.577425 57.709656
v 15.765017 5.443723 58.225395
v 15.765017 4.577425 58.741135
v 15.765017 5.121149 58.225395
v 17.540201 5.121149 58.225395
v 15.737600 4.697377 58.678524
v 17.598269 4.697377 58.678524
v 15.737600 5.327158 58.295242
v 17.598269 5.327158 58.295242
vn 1.0000 -0.0000 -0.0000
vn -0.0000 0.5115 0.8593
vn -1.0000 -0.0000 -0.0000
vn -0.0000 0.5115 -0.8593
vn -0.0000 -0.6882 -0.7255
vn -0.0000 -0.6882 0.7255
vn -0.0000 0.5199 0.8542
vt 0.375000 0.000000
vt 0.625000 0.250000
vt 0.375000 0.250000
vt 0.375000 0.125000
vt 0.625000 0.500000
vt 0.375000 0.500000
vt 0.625000 0.750000
vt 0.375000 0.750000
vt 0.375000 0.625000
vt 0.625000 1.000000
vt 0.375000 1.000000
vt 0.125000 0.500000
vt 0.125000 0.625000
vt 0.125000 0.750000
vt 0.000000 0.000000
vt 1.000000 0.000000
vt 1.000000 1.000000
vt 0.000000 1.000000
s 0
usemtl 
f 65/131/39 66/132/39 67/133/39 72/134/39
f 67/133/40 66/132/40 69/135/40 70/136/40
f 70/136/41 69/137/41 68/138/41 71/139/41
f 68/138/42 69/137/42 66/140/42 65/141/42
f 67/142/43 70/136/43 71/139/43 72/143/43
f 72/143/44 71/139/44 68/138/44 65/144/44
usemtl cooltext496508996765742
f 73/145/45 74/146/45 76/147/45 75/148/45
o Plane.001
v 11.263348 8.557555 58.918793
v 19.424095 8.557555 58.918793
v 11.263348 10.557555 58.918793
v 19.424095 10.557555 58.918793
v 11.625186 8.446882 58.918793
v 11.986914 8.304583 58.918793
v 12.363564 8.167675 58.918793
v 12.755320 8.041244 58.918793
v 13.161549 7.929121 58.918793
v 13.581370 7.834993 58.918793
v 14.012985 7.761765 58.918793
v 14.452619 7.709562 58.918793
v 14.897114 7.679436 58.918793
v 15.343721 7.669592 58.918793
v 15.790333 7.679436 58.918793
v 16.234829 7.709562 58.918793
v 16.674459 7.761765 58.918793
v 17.106075 7.834993 58.918793
v 17.525898 7.929121 58.918793
v 17.932125 8.041246 58.918793
v 18.323883 8.167677 58.918793
v 18.700531 8.304584 58.918793
v 19.062258 8.446881 58.918793
v 18.993380 10.385886 58.918793
v 18.572857 10.235668 58.918793
v 18.161232 10.098772 58.918793
v 17.755510 9.975890 58.918793
v 17.353104 9.869175 58.918793
v 16.952070 9.780877 58.918793
v 16.551105 9.712806 58.918793
v 16.149477 9.666024 58.918793
v 15.746926 9.640203 58.918793
v 15.343721 9.631646 58.918793
v 14.940512 9.640204 58.918793
v 14.537957 9.666025 58.918793
v 14.136333 9.712810 58.918793
v 13.735372 9.780876 58.918793
v 13.334337 9.869172 58.918793
v 12.931931 9.975888 58.918793
v 12.526209 10.098769 58.918793
v 12.114588 10.235669 58.918793
v 11.694064 10.385887 58.918793
v 11.263348 10.224222 58.918793
v 11.263348 9.890888 58.918793
v 11.263348 9.557555 58.918793
v 11.263348 9.224222 58.918793
v 11.263348 8.890888 58.918793
v 19.424095 8.890888 58.918793
v 19.424095 9.224222 58.918793
v 19.424095 9.557555 58.918793
v 19.424095 9.890888 58.918793
v 19.424095 10.224222 58.918793
v 11.645181 8.770630 58.918793
v 11.651473 9.094216 58.918793
v 11.652941 9.418382 58.918793
v 11.653423 9.742806 58.918793
v 11.657295 10.066570 58.918793
v 12.023486 8.628135 58.918793
v 12.037282 8.951056 58.918793
v 12.042267 9.273471 58.918793
v 12.046111 9.595562 58.918793
v 12.059813 9.917099 58.918793
v 12.409466 8.490731 58.918793
v 12.428225 8.813646 58.918793
v 12.436270 9.135904 58.918793
v 12.444128 9.457786 58.918793
v 12.465925 9.779345 58.918793
v 12.804925 8.364379 58.918793
v 12.826059 8.687714 58.918793
v 12.836158 9.010371 58.918793
v 12.847242 9.332649 58.918793
v 12.873507 9.654767 58.918793
v 13.210103 8.252867 58.918793
v 13.231218 8.576816 58.918793
v 13.242187 8.900049 58.918793
v 13.255052 9.222939 58.918793
v 13.282247 9.545937 58.918793
v 13.624451 8.159449 58.918793
v 13.643558 8.483944 58.918793
v 13.654176 8.807739 58.918793
v 13.667152 9.131336 58.918793
v 13.692334 9.455441 58.918793
v 14.046551 8.086283 58.918793
v 14.062355 8.411171 58.918793
v 14.071487 8.735534 58.918793
v 14.082965 9.059958 58.918793
v 14.103868 9.385326 58.918793
v 14.474739 8.034031 58.918793
v 14.486420 8.359565 58.918793
v 14.493122 8.684743 58.918793
v 14.501689 9.010151 58.918793
v 14.516661 9.336818 58.918793
v 14.908082 8.004310 58.918793
v 14.914464 8.330580 58.918793
v 14.918048 8.656569 58.918793
v 14.922455 8.982510 58.918793
v 14.930240 9.309903 58.918793
v 15.343721 7.994574 58.918793
v 15.343721 8.321030 58.918793
v 15.343721 8.647497 58.918793
v 15.343721 8.973769 58.918793
v 15.343721 9.301203 58.918793
v 15.779363 8.004309 58.918793
v 15.772981 8.330578 58.918793
v 15.769396 8.656567 58.918793
v 15.764989 8.982510 58.918793
v 15.757202 9.309903 58.918793
v 16.212708 8.034030 58.918793
v 16.201025 8.359564 58.918793
v 16.194323 8.684740 58.918793
v 16.185755 9.010148 58.918793
v 16.170780 9.336815 58.918793
v 16.640896 8.086282 58.918793
v 16.625090 8.411170 58.918793
v 16.615955 8.735533 58.918793
v 16.604479 9.059957 58.918793
v 16.583574 9.385324 58.918793
v 17.062992 8.159451 58.918793
v 17.043884 8.483946 58.918793
v 17.033266 8.807738 58.918793
v 17.020290 9.131336 58.918793
v 16.995108 9.455441 58.918793
v 17.477345 8.252866 58.918793
v 17.456221 8.576816 58.918793
v 17.445255 8.900049 58.918793
v 17.432390 9.222939 58.918793
v 17.405193 9.545938 58.918793
v 17.882519 8.364381 58.918793
v 17.861385 8.687716 58.918793
v 17.851284 9.010374 58.918793
v 17.840200 9.332656 58.918793
v 17.813934 9.654770 58.918793
v 18.277977 8.490733 58.918793
v 18.259218 8.813648 58.918793
v 18.251173 9.135905 58.918793
v 18.243317 9.457787 58.918793
v 18.221516 9.779347 58.918793
v 18.663960 8.628136 58.918793
v 18.650162 8.951056 58.918793
v 18.645176 9.273470 58.918793
v 18.641333 9.595561 58.918793
v 18.627630 9.917098 58.918793
v 19.042263 8.770629 58.918793
v 19.035969 9.094216 58.918793
v 19.034502 9.418382 58.918793
v 19.034019 9.742805 58.918793
v 19.030146 10.066570 58.918793
vn -0.0000 -0.0000 1.0000
vt 0.950000 0.833333
vt 1.000000 0.833333
vt 1.000000 1.000000
vt 0.950000 1.000000
vt 0.000000 0.833333
vt 0.050000 0.833333
vt 0.050000 1.000000
vt 0.000000 1.000000
vt 0.100000 0.833333
vt 0.100000 1.000000
vt 0.150000 0.833333
vt 0.150000 1.000000
vt 0.200000 0.833333
vt 0.200000 1.000000
vt 0.250000 0.833333
vt 0.250000 1.000000
vt 0.300000 0.833333
vt 0.300000 1.000000
vt 0.350000 0.833333
vt 0.350000 1.000000
vt 0.400000 0.833333
vt 0.400000 1.000000
vt 0.450000 0.833333
vt 0.450000 1.000000
vt 0.500000 0.833333
vt 0.500000 1.000000
vt 0.550000 0.833333
vt 0.550000 1.000000
vt 0.600000 0.833333
vt 0.600000 1.000000
vt 0.650000 0.833333
vt 0.650000 1.000000
vt 0.700000 0.833333
vt 0.700000 1.000000
vt 0.750000 0.833333
vt 0.750000 1.000000
vt 0.800000 0.833333
vt 0.800000 1.000000
vt 0.850000 0.833333
vt 0.850000 1.000000
vt 0.900000 0.833333
vt 0.900000 1.000000
vt 0.900000 0.000000
vt 0.950000 0.000000
vt 0.950000 0.166667
vt 0.900000 0.166667
vt 0.950000 0.333333
vt 0.900000 0.333333
vt 0.950000 0.500000
vt 0.900000 0.500000
vt 0.950000 0.666667
vt 0.900000 0.666667
vt 0.850000 0.000000
vt 0.850000 0.166667
vt 0.850000 0.333333
vt 0.850000 0.500000
vt 0.850000 0.666667
vt 0.800000 0.000000
vt 0.800000 0.166667
vt 0.800000 0.333333
vt 0.800000 0.500000
vt 0.800000 0.666667
vt 0.750000 0.000000
vt 0.750000 0.166667
vt 0.750000 0.333333
vt 0.750000 0.500000
vt 0.750000 0.666667
vt 0.700000 0.000000
vt 0.700000 0.166667
vt 0.700000 0.333333
vt 0.700000 0.500000
vt 0.700000 0.666667
vt 0.650000 0.000000
vt 0.650000 0.166667
vt 0.650000 0.333333
vt 0.650000 0.500000
vt 0.650000 0.666667
vt 0.600000 0.000000
vt 0.600000 0.166667
vt 0.600000 0.333333
vt 0.600000 0.500000
vt 0.600000 0.666667
vt 0.550000 0.000000
vt 0.550000 0.166667
vt 0.550000 0.333333
vt 0.550000 0.500000
vt 0.550000 0.666667
vt 0.500000 0.000000
vt 0.500000 0.166667
vt 0.500000 0.333333
vt 0.500000 0.500000
vt 0.500000 0.666667
vt 0.450000 0.000000
vt 0.450000 0.166667
vt 0.450000 0.333333
vt 0.450000 0.500000
vt 0.450000 0.666667
vt 0.400000 0.000000
vt 0.400000 0.166667
vt 0.400000 0.333333
vt 0.400000 0.500000
vt 0.400000 0.666667
vt 0.350000 0.000000
vt 0.350000 0.166667
vt 0.350000 0.333333
vt 0.350000 0.500000
vt 0.350000 0.666667
vt 0.300000 0.000000
vt 0.300000 0.166667
vt 0.300000 0.333333
vt 0.300000 0.500000
vt 0.300000 0.666667
vt 0.250000 0.000000
vt 0.250000 0.166667
vt 0.250000 0.333333
vt 0.250000 0.500000
vt 0.250000 0.666667
vt 0.200000 0.000000
vt 0.200000 0.166667
vt 0.200000 0.333333
vt 0.200000 0.500000
vt 0.200000 0.666667
vt 0.150000 0.000000
vt 0.150000 0.166667
vt 0.150000 0.333333
vt 0.150000 0.500000
vt 0.150000 0.666667
vt 0.100000 0.000000
vt 0.100000 0.166667
vt 0.100000 0.333333
vt 0.100000 0.500000
vt 0.100000 0.666667
vt 0.050000 0.000000
vt 0.050000 0.166667
vt 0.050000 0.333333
vt 0.050000 0.500000
vt 0.050000 0.666667
vt 0.000000 0.000000
vt 0.000000 0.166667
vt 0.000000 0.333333
vt 0.000000 0.500000
vt 0.000000 0.666667
vt 1.000000 0.000000
vt 1.000000 0.166667
vt 1.000000 0.333333
vt 1.000000 0.500000
vt 1.000000 0.666667
s 0
usemtl Material.005
f 223/149/46 128/150/46 80/151/46 100/152/46
f 119/153/46 133/154/46 118/155/46 79/156/46
f 133/154/46 138/157/46 117/158/46 118/155/46
f 138/157/46 143/159/46 116/160/46 117/158/46
f 143/159/46 148/161/46 115/162/46 116/160/46
f 148/161/46 153/163/46 114/164/46 115/162/46
f 153/163/46 158/165/46 113/166/46 114/164/46
f 158/165/46 163/167/46 112/168/46 113/166/46
f 163/167/46 168/169/46 111/170/46 112/168/46
f 168/169/46 173/171/46 110/172/46 111/170/46
f 173/171/46 178/173/46 109/174/46 110/172/46
f 178/173/46 183/175/46 108/176/46 109/174/46
f 183/175/46 188/177/46 107/178/46 108/176/46
f 188/177/46 193/179/46 106/180/46 107/178/46
f 193/179/46 198/181/46 105/182/46 106/180/46
f 198/181/46 203/183/46 104/184/46 105/182/46
f 203/183/46 208/185/46 103/186/46 104/184/46
f 208/185/46 213/187/46 102/188/46 103/186/46
f 213/187/46 218/189/46 101/190/46 102/188/46
f 218/189/46 223/149/46 100/152/46 101/190/46
f 98/191/46 99/192/46 219/193/46 214/194/46
f 214/194/46 219/193/46 220/195/46 215/196/46
f 215/196/46 220/195/46 221/197/46 216/198/46
f 216/198/46 221/197/46 222/199/46 217/200/46
f 217/200/46 222/199/46 223/149/46 218/189/46
f 97/201/46 98/191/46 214/194/46 209/202/46
f 209/202/46 214/194/46 215/196/46 210/203/46
f 210/203/46 215/196/46 216/198/46 211/204/46
f 211/204/46 216/198/46 217/200/46 212/205/46
f 212/205/46 217/200/46 218/189/46 213/187/46
f 96/206/46 97/201/46 209/202/46 204/207/46
f 204/207/46 209/202/46 210/203/46 205/208/46
f 205/208/46 210/203/46 211/204/46 206/209/46
f 206/209/46 211/204/46 212/205/46 207/210/46
f 207/210/46 212/205/46 213/187/46 208/185/46
f 95/211/46 96/206/46 204/207/46 199/212/46
f 199/212/46 204/207/46 205/208/46 200/213/46
f 200/213/46 205/208/46 206/209/46 201/214/46
f 201/214/46 206/209/46 207/210/46 202/215/46
f 202/215/46 207/210/46 208/185/46 203/183/46
f 94/216/46 95/211/46 199/212/46 194/217/46
f 194/217/46 199/212/46 200/213/46 195/218/46
f 195/218/46 200/213/46 201/214/46 196/219/46
f 196/219/46 201/214/46 202/215/46 197/220/46
f 197/220/46 202/215/46 203/183/46 198/181/46
f 93/221/46 94/216/46 194/217/46 189/222/46
f 189/222/46 194/217/46 195/218/46 190/223/46
f 190/223/46 195/218/46 196/219/46 191/224/46
f 191/224/46 196/219/46 197/220/46 192/225/46
f 192/225/46 197/220/46 198/181/46 193/179/46
f 92/226/46 93/221/46 189/222/46 184/227/46
f 184/227/46 189/222/46 190/223/46 185/228/46
f 185/228/46 190/223/46 191/224/46 186/229/46
f 186/229/46 191/224/46 192/225/46 187/230/46
f 187/230/46 192/225/46 193/179/46 188/177/46
f 91/231/46 92/226/46 184/227/46 179/232/46
f 179/232/46 184/227/46 185/228/46 180/233/46
f 180/233/46 185/228/46 186/229/46 181/234/46
f 181/234/46 186/229/46 187/230/46 182/235/46
f 182/235/46 187/230/46 188/177/46 183/175/46
f 90/236/46 91/231/46 179/232/46 174/237/46
f 174/237/46 179/232/46 180/233/46 175/238/46
f 175/238/46 180/233/46 181/234/46 176/239/46
f 176/239/46 181/234/46 182/235/46 177/240/46
f 177/240/46 182/235/46 183/175/46 178/173/46
f 89/241/46 90/236/46 174/237/46 169/242/46
f 169/242/46 174/237/46 175/238/46 170/243/46
f 170/243/46 175/238/46 176/239/46 171/244/46
f 171/244/46 176/239/46 177/240/46 172/245/46
f 172/245/46 177/240/46 178/173/46 173/171/46
f 88/246/46 89/241/46 169/242/46 164/247/46
f 164/247/46 169/242/46 170/243/46 165/248/46
f 165/248/46 170/243/46 171/244/46 166/249/46
f 166/249/46 171/244/46 172/245/46 167/250/46
f 167/250/46 172/245/46 173/171/46 168/169/46
f 87/251/46 88/246/46 164/247/46 159/252/46
f 159/252/46 164/247/46 165/248/46 160/253/46
f 160/253/46 165/248/46 166/249/46 161/254/46
f 161/254/46 166/249/46 167/250/46 162/255/46
f 162/255/46 167/250/46 168/169/46 163/167/46
f 86/256/46 87/251/46 159/252/46 154/257/46
f 154/257/46 159/252/46 160/253/46 155/258/46
f 155/258/46 160/253/46 161/254/46 156/259/46
f 156/259/46 161/254/46 162/255/46 157/260/46
f 157/260/46 162/255/46 163/167/46 158/165/46
f 85/261/46 86/256/46 154/257/46 149/262/46
f 149/262/46 154/257/46 155/258/46 150/263/46
f 150/263/46 155/258/46 156/259/46 151/264/46
f 151/264/46 156/259/46 157/260/46 152/265/46
f 152/265/46 157/260/46 158/165/46 153/163/46
f 84/266/46 85/261/46 149/262/46 144/267/46
f 144/267/46 149/262/46 150/263/46 145/268/46
f 145/268/46 150/263/46 151/264/46 146/269/46
f 146/269/46 151/264/46 152/265/46 147/270/46
f 147/270/46 152/265/46 153/163/46 148/161/46
f 83/271/46 84/266/46 144/267/46 139/272/46
f 139/272/46 144/267/46 145/268/46 140/273/46
f 140/273/46 145/268/46 146/269/46 141/274/46
f 141/274/46 146/269/46 147/270/46 142/275/46
f 142/275/46 147/270/46 148/161/46 143/159/46
f 82/276/46 83/271/46 139/272/46 134/277/46
f 134/277/46 139/272/46 140/273/46 135/278/46
f 135/278/46 140/273/46 141/274/46 136/279/46
f 136/279/46 141/274/46 142/275/46 137/280/46
f 137/280/46 142/275/46 143/159/46 138/157/46
f 81/281/46 82/276/46 134/277/46 129/282/46
f 129/282/46 134/277/46 135/278/46 130/283/46
f 130/283/46 135/278/46 136/279/46 131/284/46
f 131/284/46 136/279/46 137/280/46 132/285/46
f 132/285/46 137/280/46 138/157/46 133/154/46
f 77/286/46 81/281/46 129/282/46 123/287/46
f 123/287/46 129/282/46 130/283/46 122/288/46
f 122/288/46 130/283/46 131/284/46 121/289/46
f 121/289/46 131/284/46 132/285/46 120/290/46
f 120/290/46 132/285/46 133/154/46 119/153/46
f 99/192/46 78/291/46 124/292/46 219/193/46
f 219/193/46 124/292/46 125/293/46 220/195/46
f 220/195/46 125/293/46 126/294/46 221/197/46
f 221/197/46 126/294/46 127/295/46 222/199/46
f 222/199/46 127/295/46 128/150/46 223/149/46
o Cube.024
v 13.041977 4.582884 58.287582
v 13.041977 5.997096 58.287582
v 13.041978 4.582884 59.701794
v 13.041978 5.997096 59.701794
v 11.979873 4.582884 58.287586
v 11.979873 5.997096 58.287586
v 11.979874 4.582884 59.701797
v 11.979874 5.997096 59.701797
vn 1.0000 -0.0000 -0.0000
vn -0.0000 -0.0000 1.0000
vn -1.0000 -0.0000 -0.0000
vn -0.0000 -0.0000 -1.0000
vn -0.0000 -1.0000 -0.0000
vn -0.0000 1.0000 -0.0000
vt 0.375000 0.000000
vt 0.625000 0.000000
vt 0.625000 0.250000
vt 0.375000 0.250000
vt 0.625000 0.500000
vt 0.375000 0.500000
vt 0.625000 0.750000
vt 0.375000 0.750000
vt 0.625000 1.000000
vt 0.375000 1.000000
vt 0.125000 0.500000
vt 0.125000 0.750000
vt 0.875000 0.500000
vt 0.875000 0.750000
s 0
f 224/296/47 225/297/47 227/298/47 226/299/47
f 226/299/48 227/298/48 231/300/48 230/301/48
f 230/301/49 231/300/49 229/302/49 228/303/49
f 228/303/50 229/302/50 225/304/50 224/305/50
f 226/306/51 230/301/51 228/303/51 224/307/51
f 231/300/52 227/308/52 225/309/52 229/302/52
