# Blender 4.5.3 LTS
# www.blender.org
mtllib Tomate.mtl
o Sphere
v -1.121429 3.442166 86.485245
v -1.121429 3.084990 85.979126
v -1.121429 2.639652 85.672852
v -1.121429 2.398640 85.632721
v -1.121429 2.157630 85.672852
v -1.121429 1.712309 85.979118
v -1.064257 3.356128 87.070595
v -1.008723 3.442479 86.791405
v -0.956662 3.445309 86.529678
v -0.908183 3.281568 86.285957
v -0.864007 3.085014 86.063866
v -0.828195 2.871404 85.883827
v -0.804799 2.639652 85.766212
v -0.796657 2.398640 85.725281
v -0.804799 2.157630 85.766212
v -0.828195 1.925885 85.883827
v -0.864006 1.712309 86.063866
v -0.908183 1.525110 86.285957
v -0.956663 1.398673 86.529678
v -1.008723 1.368405 86.791405
v -1.064257 1.392493 87.070595
v -1.009491 3.356175 87.087776
v -0.901853 3.442966 86.827919
v -0.802625 3.446614 86.588356
v -0.711201 3.283230 86.367638
v -0.628327 3.085339 86.167564
v -0.560741 2.871404 86.004395
v -0.515764 2.639652 85.895813
v -0.499665 2.398640 85.856949
v -0.515764 2.157630 85.895813
v -0.560741 1.925885 86.004395
v -0.628327 1.712309 86.167564
v -0.711200 1.525110 86.367638
v -0.802641 1.401277 86.588394
v -0.901853 1.369753 86.827919
v -1.009491 1.392642 87.087776
v -0.958617 3.356125 87.114349
v -0.800467 3.442480 86.877663
v -0.652211 3.445308 86.655785
v -0.514154 3.281568 86.449165
v -0.388351 3.085014 86.260887
v -0.286368 2.871404 86.108261
v -0.219742 2.639652 86.008545
v -0.196557 2.398640 85.973846
v -0.219742 2.157630 86.008545
v -0.286367 1.925885 86.108261
v -0.388350 1.712309 86.260887
v -0.514153 1.525110 86.449165
v -0.652214 1.398674 86.655792
v -0.800467 1.368403 86.877663
v -0.958617 1.392493 87.114349
v -0.913134 3.355988 87.149727
v -0.705641 3.441205 86.942230
v -0.504284 3.442167 86.740875
v -0.315681 3.278324 86.552269
v -0.146403 3.084990 86.382988
v -0.013490 2.871404 86.250076
v 0.070162 2.639652 86.166428
v 0.098541 2.398640 86.138046
v 0.070162 2.157630 86.166428
v -0.013490 1.925885 86.250076
v -0.146402 1.712309 86.382988
v -0.315681 1.525110 86.552269
v -0.504284 1.392714 86.740875
v -0.705641 1.364883 86.942230
v -0.913134 1.392076 87.149727
v -0.877764 3.356126 87.195206
v -0.641076 3.442479 87.037056
v -0.419195 3.445308 86.888802
v -0.212578 3.281568 86.750740
v -0.024300 3.085014 86.624939
v 0.128329 2.871404 86.522957
v 0.228040 2.639652 86.456329
v 0.262740 2.398640 86.433144
v 0.228040 2.157630 86.456329
v 0.128330 1.925885 86.522957
v -0.024299 1.712309 86.624939
v -0.212577 1.525110 86.750740
v -0.419199 1.398674 86.888802
v -0.641076 1.368403 87.037056
v -0.877764 1.392493 87.195206
v -1.121429 3.245046 87.358017
v -0.851185 3.356176 87.246078
v -0.591326 3.442966 87.138443
v -0.351767 3.446614 87.039215
v -0.131050 3.283231 86.947792
v 0.069024 3.085339 86.864914
v 0.232191 2.871404 86.797333
v 0.340775 2.639652 86.752357
v 0.379642 2.398640 86.736252
v 0.340775 2.157630 86.752357
v 0.232192 1.925885 86.797333
v 0.069026 1.712309 86.864914
v -0.131048 1.525110 86.947792
v -0.351807 1.401277 87.039230
v -0.591326 1.369752 87.138443
v -0.851185 1.392642 87.246078
v -0.834006 3.356126 87.300850
v -0.554814 3.442480 87.245316
v -0.293088 3.445308 87.193253
v -0.049366 3.281568 87.144775
v 0.172724 3.085014 87.100594
v 0.352762 2.871404 87.064781
v 0.470379 2.639652 87.041389
v 0.511310 2.398640 87.033249
v 0.470379 2.157630 87.041389
v 0.352763 1.925885 87.064781
v 0.172725 1.712309 87.100594
v -0.049365 1.525110 87.144768
v -0.293093 1.398674 87.193253
v -0.554814 1.368403 87.245316
v -0.834006 1.392493 87.300850
v -0.826856 3.355987 87.358017
v -0.533415 3.441204 87.358017
v -0.248654 3.442166 87.358017
v 0.018072 3.278323 87.358017
v 0.257467 3.084990 87.358017
v 0.445435 2.871404 87.358017
v 0.563736 2.639652 87.358017
v 0.603869 2.398640 87.358017
v 0.563736 2.157630 87.358017
v 0.445435 1.925885 87.358017
v 0.257468 1.712309 87.358017
v 0.018073 1.525110 87.358017
v -0.248654 1.392714 87.358017
v -0.533415 1.364882 87.358017
v -0.826856 1.392076 87.358017
v -0.834006 3.356126 87.415192
v -0.554814 3.442480 87.470726
v -0.293088 3.445307 87.522789
v -0.049366 3.281568 87.571266
v 0.172723 3.085014 87.615440
v 0.352762 2.871404 87.651253
v 0.470378 2.639652 87.674652
v 0.511309 2.398640 87.682793
v 0.470378 2.157630 87.674652
v 0.352763 1.925885 87.651253
v 0.172725 1.712309 87.615440
v -0.049365 1.525110 87.571266
v -0.293093 1.398674 87.522781
v -0.554814 1.368403 87.470726
v -0.834006 1.392493 87.415192
v -0.851185 3.356176 87.469955
v -0.591326 3.442966 87.577591
v -0.351767 3.446613 87.676826
v -0.131050 3.283230 87.768250
v 0.069024 3.085339 87.851120
v 0.232191 2.871404 87.918709
v 0.340775 2.639652 87.963684
v 0.379641 2.398640 87.979782
v 0.340775 2.157630 87.963684
v 0.232192 1.925885 87.918709
v 0.069026 1.712309 87.851120
v -0.131048 1.525110 87.768250
v -0.351807 1.401277 87.676804
v -0.591326 1.369752 87.577591
v -0.851185 1.392641 87.469955
v -0.877764 3.356126 87.520828
v -0.641076 3.442479 87.678978
v -0.419195 3.445307 87.827240
v -0.212578 3.281568 87.965294
v -0.024301 3.085014 88.091095
v 0.128329 2.871404 88.193077
v 0.228041 2.639652 88.259705
v 0.262739 2.398640 88.282890
v 0.228041 2.157630 88.259705
v 0.128330 1.925885 88.193085
v -0.024299 1.712309 88.091095
v -0.212577 1.525110 87.965294
v -0.419200 1.398673 87.827232
v -0.641076 1.368403 87.678978
v -0.877764 1.392493 87.520828
v -0.913134 3.355988 87.566315
v -0.705641 3.441205 87.773804
v -0.504284 3.442166 87.975166
v -0.315682 3.278324 88.163765
v -0.146403 3.084990 88.333046
v -0.013490 2.871404 88.465958
v 0.070162 2.639652 88.549606
v 0.098540 2.398640 88.577988
v 0.070162 2.157630 88.549606
v -0.013490 1.925885 88.465958
v -0.146403 1.712309 88.333046
v -0.315681 1.525110 88.163765
v -0.504284 1.392714 87.975166
v -0.705641 1.364882 87.773804
v -0.913134 1.392075 87.566315
v -0.958617 3.356125 87.601685
v -0.800468 3.442480 87.838371
v -0.652212 3.445308 88.060249
v -0.514155 3.281568 88.266869
v -0.388351 3.085014 88.455147
v -0.286368 2.871404 88.607773
v -0.219743 2.639652 88.707489
v -0.196558 2.398640 88.742188
v -0.219743 2.157630 88.707489
v -0.286368 1.925885 88.607780
v -0.388350 1.712309 88.455147
v -0.514154 1.525110 88.266869
v -0.652215 1.398674 88.060249
v -0.800468 1.368403 87.838371
v -0.958617 1.392492 87.601685
v -1.009491 3.356175 87.628265
v -0.901854 3.442966 87.888123
v -0.802625 3.446614 88.127678
v -0.711201 3.283230 88.348396
v -0.628328 3.085339 88.548470
v -0.560741 2.871404 88.711639
v -0.515765 2.639652 88.820221
v -0.499666 2.398640 88.859093
v -0.515765 2.157630 88.820221
v -0.560741 1.925885 88.711639
v -0.628327 1.712309 88.548477
v -0.711200 1.525110 88.348396
v -0.802641 1.401277 88.127640
v -0.901854 1.369751 87.888123
v -1.009491 1.392641 87.628265
v -1.064257 3.356128 87.645439
v -1.008723 3.442479 87.924637
v -0.956662 3.445306 88.186363
v -0.908183 3.281567 88.430084
v -0.864007 3.085014 88.652168
v -0.828195 2.871404 88.832207
v -0.804799 2.639652 88.949829
v -0.796658 2.398640 88.990761
v -0.804799 2.157630 88.949829
v -0.828194 1.925885 88.832207
v -0.864006 1.712309 88.652176
v -0.908183 1.525110 88.430084
v -0.956663 1.398673 88.186356
v -1.008723 1.368403 87.924637
v -1.064257 1.392493 87.645439
v -1.121429 3.355987 87.652596
v -1.121429 3.441204 87.946030
v -1.121430 3.442165 88.230797
v -1.121429 3.278323 88.497520
v -1.121430 3.084990 88.736916
v -1.121429 2.871404 88.924881
v -1.121430 2.639652 89.043182
v -1.121430 2.398640 89.083313
v -1.121430 2.157630 89.043182
v -1.121429 1.925885 88.924881
v -1.121430 1.712309 88.736916
v -1.121429 1.525110 88.497520
v -1.121430 1.392714 88.230797
v -1.121429 1.364882 87.946030
v -1.121429 1.392075 87.652596
v -1.178602 3.356128 87.645439
v -1.234136 3.442479 87.924637
v -1.286197 3.445306 88.186363
v -1.334676 3.281567 88.430084
v -1.378852 3.085014 88.652168
v -1.414664 2.871404 88.832207
v -1.438060 2.639652 88.949829
v -1.446202 2.398640 88.990753
v -1.438060 2.157630 88.949829
v -1.414664 1.925885 88.832207
v -1.378853 1.712309 88.652168
v -1.334676 1.525110 88.430084
v -1.286196 1.398673 88.186356
v -1.234136 1.368403 87.924637
v -1.178602 1.392493 87.645439
v -1.233368 3.356175 87.628265
v -1.341005 3.442966 87.888123
v -1.440234 3.446614 88.127678
v -1.531658 3.283230 88.348396
v -1.614532 3.085339 88.548470
v -1.682117 2.871404 88.711639
v -1.727094 2.639652 88.820221
v -1.743194 2.398640 88.859093
v -1.727094 2.157630 88.820221
v -1.682118 1.925885 88.711639
v -1.614532 1.712309 88.548477
v -1.531659 1.525110 88.348396
v -1.440218 1.401277 88.127640
v -1.341005 1.369751 87.888123
v -1.233368 1.392641 87.628265
v -1.284242 3.356125 87.601685
v -1.442391 3.442480 87.838371
v -1.590647 3.445308 88.060249
v -1.728704 3.281568 88.266869
v -1.854508 3.085014 88.455147
v -1.956491 2.871404 88.607773
v -2.023116 2.639652 88.707489
v -2.046302 2.398640 88.742188
v -2.023116 2.157630 88.707489
v -1.956491 1.925885 88.607773
v -1.854509 1.712309 88.455147
v -1.728705 1.525110 88.266869
v -1.590644 1.398674 88.060249
v -1.442391 1.368403 87.838371
v -1.284242 1.392492 87.601685
v -1.329724 3.355988 87.566315
v -1.537218 3.441205 87.773804
v -1.738575 3.442166 87.975166
v -1.927177 3.278324 88.163765
v -2.096455 3.084990 88.333046
v -2.229369 2.871404 88.465958
v -2.313021 2.639652 88.549606
v -2.341399 2.398640 88.577988
v -2.313021 2.157630 88.549606
v -2.229369 1.925885 88.465958
v -2.096456 1.712309 88.333046
v -1.927178 1.525110 88.163765
v -1.738575 1.392714 87.975166
v -1.537218 1.364882 87.773804
v -1.329724 1.392075 87.566315
v -1.121429 1.414091 87.358017
v -1.365095 3.356126 87.520828
v -1.601782 3.442479 87.678978
v -1.823663 3.445307 87.827240
v -2.030280 3.281568 87.965294
v -2.218558 3.085014 88.091095
v -2.371188 2.871404 88.193077
v -2.470899 2.639652 88.259705
v -2.505598 2.398640 88.282890
v -2.470899 2.157630 88.259705
v -2.371189 1.925885 88.193077
v -2.218560 1.712309 88.091095
v -2.030282 1.525110 87.965294
v -1.823659 1.398673 87.827232
v -1.601782 1.368403 87.678978
v -1.365095 1.392493 87.520828
v -1.391673 3.356176 87.469955
v -1.651532 3.442966 87.577591
v -1.891091 3.446613 87.676826
v -2.111809 3.283230 87.768250
v -2.311883 3.085339 87.851120
v -2.475050 2.871404 87.918709
v -2.583633 2.639652 87.963684
v -2.622500 2.398640 87.979782
v -2.583634 2.157630 87.963684
v -2.475051 1.925885 87.918709
v -2.311885 1.712309 87.851120
v -2.111810 1.525110 87.768250
v -1.891052 1.401277 87.676804
v -1.651532 1.369752 87.577591
v -1.391673 1.392642 87.469955
v -1.408853 3.356126 87.415192
v -1.688045 3.442480 87.470726
v -1.949770 3.445307 87.522789
v -2.193492 3.281568 87.571266
v -2.415582 3.085014 87.615440
v -2.595620 2.871404 87.651253
v -2.713238 2.639652 87.674652
v -2.754167 2.398640 87.682793
v -2.713238 2.157630 87.674652
v -2.595621 1.925885 87.651253
v -2.415584 1.712309 87.615440
v -2.193494 1.525110 87.571266
v -1.949765 1.398674 87.522781
v -1.688045 1.368403 87.470726
v -1.408853 1.392493 87.415192
v -1.416003 3.355987 87.358017
v -1.709444 3.441204 87.358017
v -1.994204 3.442166 87.358017
v -2.260931 3.278323 87.358017
v -2.500324 3.084990 87.358017
v -2.688293 2.871404 87.358017
v -2.806593 2.639652 87.358017
v -2.846726 2.398640 87.358017
v -2.806593 2.157630 87.358017
v -2.688293 1.925885 87.358017
v -2.500326 1.712309 87.358017
v -2.260932 1.525110 87.358017
v -1.994204 1.392714 87.358017
v -1.709444 1.364883 87.358017
v -1.416003 1.392076 87.358017
v -1.408853 3.356126 87.300850
v -1.688045 3.442480 87.245316
v -1.949770 3.445308 87.193253
v -2.193492 3.281568 87.144775
v -2.415581 3.085014 87.100594
v -2.595619 2.871404 87.064781
v -2.713236 2.639652 87.041389
v -2.754166 2.398640 87.033249
v -2.713236 2.157630 87.041389
v -2.595620 1.925885 87.064781
v -2.415583 1.712309 87.100594
v -2.193494 1.525110 87.144775
v -1.949765 1.398674 87.193253
v -1.688045 1.368404 87.245316
v -1.408853 1.392493 87.300850
v -1.391673 3.356176 87.246078
v -1.651532 3.442966 87.138443
v -1.891091 3.446614 87.039215
v -2.111809 3.283231 86.947792
v -2.311882 3.085339 86.864914
v -2.475049 2.871404 86.797333
v -2.583633 2.639652 86.752357
v -2.622499 2.398640 86.736252
v -2.583633 2.157630 86.752357
v -2.475050 1.925885 86.797333
v -2.311884 1.712309 86.864914
v -2.111810 1.525110 86.947792
v -1.891052 1.401278 87.039230
v -1.651532 1.369753 87.138443
v -1.391673 1.392642 87.246078
v -1.365095 3.356126 87.195206
v -1.601782 3.442479 87.037056
v -1.823663 3.445308 86.888802
v -2.030280 3.281568 86.750740
v -2.218558 3.085014 86.624939
v -2.371188 2.871404 86.522957
v -2.470900 2.639652 86.456329
v -2.505598 2.398640 86.433144
v -2.470900 2.157630 86.456329
v -2.371188 1.925885 86.522957
v -2.218559 1.712309 86.624939
v -2.030282 1.525110 86.750740
v -1.823659 1.398674 86.888802
v -1.601782 1.368403 87.037056
v -1.365095 1.392493 87.195206
v -1.329724 3.355988 87.149727
v -1.537218 3.441205 86.942230
v -1.738574 3.442167 86.740875
v -1.927177 3.278324 86.552269
v -2.096455 3.084990 86.382996
v -2.229368 2.871404 86.250076
v -2.313020 2.639652 86.166428
v -2.341398 2.398640 86.138046
v -2.313020 2.157630 86.166428
v -2.229369 1.925885 86.250076
v -2.096456 1.712309 86.382988
v -1.927178 1.525110 86.552269
v -1.738574 1.392714 86.740875
v -1.537218 1.364883 86.942230
v -1.329724 1.392076 87.149727
v -1.284241 3.356125 87.114349
v -1.442391 3.442480 86.877663
v -1.590647 3.445308 86.655785
v -1.728704 3.281568 86.449165
v -1.854507 3.085014 86.260887
v -1.956491 2.871404 86.108261
v -2.023116 2.639652 86.008553
v -2.046300 2.398640 85.973846
v -2.023116 2.157630 86.008553
v -1.956491 1.925885 86.108261
v -1.854508 1.712309 86.260887
v -1.728705 1.525110 86.449165
v -1.590644 1.398674 86.655792
v -1.442391 1.368403 86.877663
v -1.284241 1.392494 87.114349
v -1.233368 3.356175 87.087776
v -1.341005 3.442966 86.827919
v -1.440233 3.446614 86.588356
v -1.531658 3.283230 86.367638
v -1.614531 3.085339 86.167564
v -1.682117 2.871404 86.004402
v -1.727094 2.639652 85.895813
v -1.743192 2.398640 85.856949
v -1.727094 2.157630 85.895813
v -1.682118 1.925885 86.004395
v -1.614532 1.712309 86.167564
v -1.531659 1.525110 86.367638
v -1.440217 1.401277 86.588394
v -1.341005 1.369753 86.827919
v -1.233368 1.392642 87.087776
v -1.178601 3.356124 87.070595
v -1.234136 3.442479 86.791405
v -1.286196 3.445307 86.529678
v -1.334676 3.281568 86.285957
v -1.378852 3.085014 86.063866
v -1.414664 2.871404 85.883827
v -1.438059 2.639652 85.766212
v -1.446200 2.398640 85.725281
v -1.438059 2.157630 85.766212
v -1.414664 1.925885 85.883827
v -1.378852 1.712309 86.063866
v -1.334676 1.525110 86.285957
v -1.286195 1.398675 86.529686
v -1.234136 1.368405 86.791405
v -1.178601 1.392493 87.070595
v -1.121429 3.355988 87.063446
v -1.121429 3.441204 86.770004
v -1.121429 3.278324 86.218521
v -1.121429 2.871404 85.791153
v -1.121429 1.925885 85.791153
v -1.121429 1.525110 86.218513
v -1.121429 1.392714 86.485245
v -1.121429 1.364882 86.770004
v -1.121429 1.392077 87.063446
v -1.036490 3.410125 86.931000
v -0.955672 3.410392 86.957848
v -0.879542 3.410124 86.996010
v -0.809388 3.409418 87.045975
v -0.759420 3.410124 87.116135
v -0.721256 3.410393 87.192261
v -0.694410 3.410124 87.273079
v -0.680135 3.409417 87.358017
v -0.694410 3.410124 87.442955
v -0.721256 3.410393 87.523773
v -0.759420 3.410124 87.599907
v -0.809388 3.409418 87.670059
v -0.879542 3.410124 87.720032
v -0.955672 3.410392 87.758194
v -1.036490 3.410125 87.785034
v -1.121429 3.409417 87.799309
v -1.206369 3.410125 87.785034
v -1.287187 3.410392 87.758194
v -1.363316 3.410124 87.720032
v -1.433471 3.409418 87.670059
v -1.483439 3.410124 87.599907
v -1.521603 3.410393 87.523773
v -1.548449 3.410124 87.442955
v -1.562723 3.409417 87.358017
v -1.548449 3.410124 87.273079
v -1.521603 3.410393 87.192261
v -1.483439 3.410124 87.116135
v -1.433471 3.409418 87.045975
v -1.363316 3.410124 86.996010
v -1.287187 3.410392 86.957848
v -1.206369 3.410123 86.931000
v -1.121429 3.409417 86.916725
v -0.932422 3.403464 86.407814
v -0.756913 3.404948 86.477997
v -0.583183 3.403463 86.552475
v -0.409983 3.400271 86.646568
v -0.315887 3.403463 86.819771
v -0.241409 3.404948 86.993500
v -0.171227 3.403463 87.169014
v -0.115291 3.400270 87.358017
v -0.171227 3.403463 87.547028
v -0.241409 3.404947 87.722534
v -0.315887 3.403463 87.896263
v -0.409983 3.400270 88.069466
v -0.583183 3.403463 88.163559
v -0.756913 3.404948 88.238037
v -0.932423 3.403462 88.308220
v -1.121430 3.400270 88.364159
v -1.310436 3.403462 88.308220
v -1.485946 3.404948 88.238037
v -1.659676 3.403463 88.163559
v -1.832876 3.400270 88.069466
v -1.926972 3.403463 87.896263
v -2.001450 3.404947 87.722534
v -2.071631 3.403463 87.547028
v -2.127567 3.400270 87.358017
v -2.071631 3.403463 87.169014
v -2.001450 3.404948 86.993500
v -1.926972 3.403463 86.819771
v -1.832876 3.400271 86.646568
v -1.659675 3.403463 86.552475
v -1.485946 3.404948 86.477997
v -1.310436 3.403463 86.407814
v -1.121429 3.400270 86.351883
v -1.139696 3.545016 86.237473
v -1.139696 3.566437 86.237473
v -0.944724 3.367111 87.093399
v -0.944724 3.388533 87.093399
v -0.070429 3.545016 87.014343
v -0.070429 3.566437 87.014343
v -0.824224 3.367111 87.464256
v -0.824224 3.388533 87.464256
v -0.478853 3.545016 88.271347
v -0.478853 3.566437 88.271347
v -1.139696 3.367111 87.693466
v -1.139696 3.388533 87.693466
v -1.800539 3.545016 88.271347
v -1.800539 3.566437 88.271347
v -1.455168 3.367111 87.464256
v -1.455168 3.388533 87.464256
v -2.208963 3.545016 87.014343
v -2.208963 3.566437 87.014343
v -1.334669 3.367111 87.093399
v -1.334669 3.388533 87.093399
v -1.139676 3.388533 87.361755
v -1.139694 3.367111 87.361763
v -0.605052 3.477485 87.188049
vn -0.0000 0.9847 -0.1742
vn -0.0000 0.7160 -0.6981
vn -0.0000 0.3189 -0.9478
vn -0.0000 -0.0000 -1.0000
vn -0.0000 -0.3189 -0.9478
vn -0.0000 -0.7225 -0.6913
vn -0.0813 0.9352 0.3447
vn -0.0364 0.9938 0.1051
vn 0.0398 0.9876 -0.1521
vn 0.2283 0.7323 -0.6416
vn 0.2514 0.6998 -0.6686
vn 0.2952 0.5521 -0.7797
vn 0.3293 0.3142 -0.8904
vn 0.3428 -0.0000 -0.9394
vn 0.3293 -0.3142 -0.8904
vn 0.2953 -0.5522 -0.7796
vn 0.2505 -0.7081 -0.6602
vn 0.1938 -0.8330 -0.5182
vn 0.1094 -0.9569 -0.2691
vn 0.0271 -0.9996 -0.0128
vn -0.0077 -0.9968 0.0796
vn -0.1365 0.9342 0.3295
vn -0.0436 0.9935 0.1053
vn 0.0601 0.9876 -0.1451
vn 0.2639 0.7241 -0.6372
vn 0.2752 0.6949 -0.6643
vn 0.3189 0.5526 -0.7700
vn 0.3629 0.3177 -0.8760
vn 0.3827 -0.0000 -0.9239
vn 0.3629 -0.3177 -0.8760
vn 0.3189 -0.5528 -0.7699
vn 0.2715 -0.7048 -0.6554
vn 0.2123 -0.8320 -0.5126
vn 0.1111 -0.9570 -0.2681
vn 0.0085 -0.9998 -0.0206
vn -0.0298 -0.9970 0.0719
vn -0.1863 0.9352 0.3012
vn -0.0486 0.9938 0.1000
vn 0.0794 0.9876 -0.1357
vn 0.2922 0.7323 -0.6151
vn 0.2950 0.6998 -0.6506
vn 0.3426 0.5521 -0.7601
vn 0.3968 0.3142 -0.8625
vn 0.4218 -0.0000 -0.9067
vn 0.3968 -0.3142 -0.8625
vn 0.3425 -0.5522 -0.7601
vn 0.2897 -0.7081 -0.6440
vn 0.2294 -0.8330 -0.5034
vn 0.1129 -0.9569 -0.2676
vn -0.0101 -0.9996 -0.0282
vn -0.0508 -0.9968 0.0618
vn -0.2469 0.9370 0.2469
vn -0.0686 0.9953 0.0686
vn 0.1232 0.9847 -0.1232
vn 0.4628 0.7560 -0.4628
vn 0.4936 0.7160 -0.4936
vn 0.5841 0.5635 -0.5841
vn 0.6702 0.3189 -0.6702
vn 0.7071 -0.0000 -0.7071
vn 0.6702 -0.3189 -0.6702
vn 0.5841 -0.5636 -0.5841
vn 0.4889 -0.7225 -0.4889
vn 0.3833 -0.8403 -0.3833
vn 0.2060 -0.9566 -0.2060
vn 0.0115 -0.9999 -0.0115
vn -0.0586 -0.9966 0.0586
vn -0.3012 0.9352 0.1862
vn -0.1000 0.9938 0.0486
vn 0.1357 0.9876 -0.0794
vn 0.6151 0.7323 -0.2922
vn 0.6506 0.6998 -0.2950
vn 0.7601 0.5521 -0.3426
vn 0.8625 0.3142 -0.3968
vn 0.9067 -0.0000 -0.4218
vn 0.8625 -0.3142 -0.3968
vn 0.7601 -0.5522 -0.3425
vn 0.6440 -0.7081 -0.2897
vn 0.5034 -0.8330 -0.2294
vn 0.2676 -0.9569 -0.1129
vn 0.0282 -0.9996 0.0101
vn -0.0618 -0.9968 0.0508
vn -0.0000 1.0000 -0.0000
vn -0.3295 0.9342 0.1365
vn -0.1053 0.9935 0.0436
vn 0.1451 0.9876 -0.0601
vn 0.6372 0.7241 -0.2639
vn 0.6643 0.6949 -0.2752
vn 0.7700 0.5526 -0.3189
vn 0.8760 0.3177 -0.3629
vn 0.9239 -0.0000 -0.3827
vn 0.8760 -0.3177 -0.3629
vn 0.7699 -0.5528 -0.3189
vn 0.6554 -0.7048 -0.2715
vn 0.5126 -0.8320 -0.2123
vn 0.2681 -0.9570 -0.1111
vn 0.0206 -0.9998 -0.0085
vn -0.0719 -0.9970 0.0298
vn -0.3447 0.9352 0.0813
vn -0.1051 0.9938 0.0364
vn 0.1521 0.9876 -0.0398
vn 0.6416 0.7323 -0.2283
vn 0.6686 0.6998 -0.2514
vn 0.7797 0.5521 -0.2952
vn 0.8904 0.3142 -0.3293
vn 0.9394 -0.0000 -0.3428
vn 0.8904 -0.3142 -0.3293
vn 0.7796 -0.5522 -0.2953
vn 0.6602 -0.7081 -0.2505
vn 0.5182 -0.8330 -0.1938
vn 0.2691 -0.9569 -0.1094
vn 0.0128 -0.9996 -0.0271
vn -0.0796 -0.9968 0.0077
vn -0.3492 0.9370 -0.0000
vn -0.0970 0.9953 -0.0000
vn 0.1742 0.9847 -0.0000
vn 0.6545 0.7560 -0.0000
vn 0.6981 0.7160 -0.0000
vn 0.8261 0.5635 -0.0000
vn 0.9478 0.3189 -0.0000
vn 1.0000 -0.0000 -0.0000
vn 0.9478 -0.3189 -0.0000
vn 0.8261 -0.5636 -0.0000
vn 0.6913 -0.7225 -0.0000
vn 0.5420 -0.8403 -0.0000
vn 0.2914 -0.9566 -0.0000
vn 0.0163 -0.9999 -0.0000
vn -0.0829 -0.9966 -0.0000
vn -0.3447 0.9352 -0.0813
vn -0.1051 0.9938 -0.0364
vn 0.1521 0.9876 0.0398
vn 0.6416 0.7323 0.2283
vn 0.6686 0.6998 0.2514
vn 0.7797 0.5521 0.2952
vn 0.8904 0.3142 0.3293
vn 0.9394 -0.0000 0.3428
vn 0.8904 -0.3142 0.3293
vn 0.7796 -0.5522 0.2953
vn 0.6602 -0.7081 0.2505
vn 0.5182 -0.8330 0.1938
vn 0.2691 -0.9569 0.1094
vn 0.0128 -0.9996 0.0271
vn -0.0796 -0.9968 -0.0077
vn -0.3295 0.9342 -0.1365
vn -0.1053 0.9935 -0.0436
vn 0.1451 0.9876 0.0601
vn 0.6372 0.7241 0.2639
vn 0.6643 0.6949 0.2752
vn 0.7700 0.5526 0.3189
vn 0.8760 0.3177 0.3629
vn 0.9239 -0.0000 0.3827
vn 0.8760 -0.3177 0.3629
vn 0.7699 -0.5528 0.3189
vn 0.6554 -0.7048 0.2715
vn 0.5126 -0.8320 0.2123
vn 0.2681 -0.9570 0.1111
vn 0.0206 -0.9998 0.0085
vn -0.0719 -0.9970 -0.0298
vn -0.3012 0.9352 -0.1862
vn -0.1000 0.9938 -0.0486
vn 0.1357 0.9876 0.0794
vn 0.6151 0.7323 0.2922
vn 0.6506 0.6998 0.2950
vn 0.7601 0.5521 0.3426
vn 0.8625 0.3142 0.3968
vn 0.9067 -0.0000 0.4218
vn 0.8625 -0.3142 0.3968
vn 0.7601 -0.5522 0.3425
vn 0.6440 -0.7081 0.2897
vn 0.5034 -0.8330 0.2294
vn 0.2676 -0.9569 0.1129
vn 0.0282 -0.9996 -0.0101
vn -0.0618 -0.9968 -0.0508
vn -0.2469 0.9370 -0.2469
vn -0.0686 0.9953 -0.0686
vn 0.1232 0.9847 0.1232
vn 0.4628 0.7560 0.4628
vn 0.4936 0.7160 0.4936
vn 0.5841 0.5635 0.5841
vn 0.6702 0.3189 0.6702
vn 0.7071 -0.0000 0.7071
vn 0.6702 -0.3189 0.6702
vn 0.5841 -0.5636 0.5841
vn 0.4889 -0.7225 0.4889
vn 0.3833 -0.8403 0.3833
vn 0.2060 -0.9566 0.2060
vn 0.0115 -0.9999 0.0115
vn -0.0586 -0.9966 -0.0586
vn -0.1863 0.9352 -0.3012
vn -0.0486 0.9938 -0.1000
vn 0.0794 0.9876 0.1357
vn 0.2922 0.7323 0.6151
vn 0.2950 0.6998 0.6506
vn 0.3426 0.5521 0.7601
vn 0.3968 0.3142 0.8625
vn 0.4218 -0.0000 0.9067
vn 0.3968 -0.3142 0.8625
vn 0.3425 -0.5522 0.7601
vn 0.2897 -0.7081 0.6440
vn 0.2294 -0.8330 0.5034
vn 0.1129 -0.9569 0.2676
vn -0.0101 -0.9996 0.0282
vn -0.0508 -0.9968 -0.0618
vn -0.1365 0.9342 -0.3295
vn -0.0436 0.9935 -0.1053
vn 0.0601 0.9876 0.1451
vn 0.2639 0.7241 0.6372
vn 0.2752 0.6949 0.6643
vn 0.3189 0.5526 0.7700
vn 0.3629 0.3177 0.8760
vn 0.3827 -0.0000 0.9239
vn 0.3629 -0.3177 0.8760
vn 0.3189 -0.5528 0.7699
vn 0.2715 -0.7048 0.6554
vn 0.2123 -0.8320 0.5126
vn 0.1111 -0.9570 0.2681
vn 0.0085 -0.9998 0.0206
vn -0.0298 -0.9970 -0.0719
vn -0.0813 0.9352 -0.3447
vn -0.0364 0.9938 -0.1051
vn 0.0398 0.9876 0.1521
vn 0.2283 0.7323 0.6416
vn 0.2514 0.6998 0.6686
vn 0.2952 0.5521 0.7797
vn 0.3293 0.3142 0.8904
vn 0.3428 -0.0000 0.9394
vn 0.3293 -0.3142 0.8904
vn 0.2953 -0.5522 0.7796
vn 0.2505 -0.7081 0.6602
vn 0.1938 -0.8330 0.5182
vn 0.1094 -0.9569 0.2691
vn 0.0271 -0.9996 0.0128
vn -0.0077 -0.9968 -0.0796
vn -0.0000 0.9370 -0.3492
vn -0.0000 0.9953 -0.0970
vn -0.0000 0.9847 0.1742
vn -0.0000 0.7560 0.6545
vn -0.0000 0.7160 0.6981
vn -0.0000 0.5635 0.8261
vn -0.0000 0.3189 0.9478
vn -0.0000 -0.0000 1.0000
vn -0.0000 -0.3189 0.9478
vn -0.0000 -0.5636 0.8261
vn -0.0000 -0.7225 0.6913
vn -0.0000 -0.8403 0.5420
vn -0.0000 -0.9566 0.2914
vn -0.0000 -0.9999 0.0163
vn -0.0000 -0.9966 -0.0829
vn 0.0813 0.9352 -0.3447
vn 0.0364 0.9938 -0.1051
vn -0.0398 0.9876 0.1521
vn -0.2283 0.7323 0.6416
vn -0.2514 0.6998 0.6686
vn -0.2952 0.5521 0.7797
vn -0.3293 0.3142 0.8904
vn -0.3428 -0.0000 0.9394
vn -0.3293 -0.3142 0.8904
vn -0.2953 -0.5522 0.7796
vn -0.2505 -0.7081 0.6602
vn -0.1938 -0.8330 0.5182
vn -0.1094 -0.9569 0.2691
vn -0.0271 -0.9996 0.0128
vn 0.0077 -0.9968 -0.0796
vn 0.1365 0.9342 -0.3295
vn 0.0436 0.9935 -0.1053
vn -0.0601 0.9876 0.1451
vn -0.2639 0.7241 0.6372
vn -0.2752 0.6949 0.6643
vn -0.3189 0.5526 0.7700
vn -0.3629 0.3177 0.8760
vn -0.3827 -0.0000 0.9239
vn -0.3629 -0.3177 0.8760
vn -0.3189 -0.5528 0.7699
vn -0.2715 -0.7048 0.6554
vn -0.2123 -0.8320 0.5126
vn -0.1111 -0.9570 0.2681
vn -0.0085 -0.9998 0.0206
vn 0.0298 -0.9970 -0.0719
vn 0.1863 0.9352 -0.3012
vn 0.0486 0.9938 -0.1000
vn -0.0794 0.9876 0.1357
vn -0.2922 0.7323 0.6151
vn -0.2950 0.6998 0.6506
vn -0.3426 0.5521 0.7601
vn -0.3968 0.3142 0.8625
vn -0.4218 -0.0000 0.9067
vn -0.3968 -0.3142 0.8625
vn -0.3425 -0.5522 0.7601
vn -0.2897 -0.7081 0.6440
vn -0.2294 -0.8330 0.5034
vn -0.1129 -0.9569 0.2676
vn 0.0101 -0.9996 0.0282
vn 0.0508 -0.9968 -0.0618
vn 0.2469 0.9370 -0.2469
vn 0.0686 0.9953 -0.0686
vn -0.1232 0.9847 0.1232
vn -0.4628 0.7560 0.4628
vn -0.4936 0.7160 0.4936
vn -0.5841 0.5635 0.5841
vn -0.6702 0.3189 0.6702
vn -0.7071 -0.0000 0.7071
vn -0.6702 -0.3189 0.6702
vn -0.5841 -0.5636 0.5841
vn -0.4889 -0.7225 0.4889
vn -0.3833 -0.8403 0.3833
vn -0.2060 -0.9566 0.2060
vn -0.0115 -0.9999 0.0115
vn 0.0586 -0.9966 -0.0586
vn -0.0000 -1.0000 -0.0000
vn 0.3012 0.9352 -0.1862
vn 0.1000 0.9938 -0.0486
vn -0.1357 0.9876 0.0794
vn -0.6151 0.7323 0.2922
vn -0.6506 0.6998 0.2950
vn -0.7601 0.5521 0.3426
vn -0.8625 0.3142 0.3968
vn -0.9067 -0.0000 0.4218
vn -0.8625 -0.3142 0.3968
vn -0.7601 -0.5522 0.3425
vn -0.6440 -0.7081 0.2897
vn -0.5034 -0.8330 0.2294
vn -0.2676 -0.9569 0.1129
vn -0.0282 -0.9996 -0.0101
vn 0.0618 -0.9968 -0.0508
vn 0.3295 0.9342 -0.1365
vn 0.1053 0.9935 -0.0436
vn -0.1451 0.9876 0.0601
vn -0.6372 0.7241 0.2639
vn -0.6643 0.6949 0.2752
vn -0.7700 0.5526 0.3189
vn -0.8760 0.3177 0.3629
vn -0.9239 -0.0000 0.3827
vn -0.8760 -0.3177 0.3629
vn -0.7699 -0.5528 0.3189
vn -0.6554 -0.7048 0.2715
vn -0.5126 -0.8320 0.2123
vn -0.2681 -0.9570 0.1111
vn -0.0206 -0.9998 0.0085
vn 0.0719 -0.9970 -0.0298
vn 0.3447 0.9352 -0.0813
vn 0.1051 0.9938 -0.0364
vn -0.1521 0.9876 0.0398
vn -0.6416 0.7323 0.2283
vn -0.6686 0.6998 0.2514
vn -0.7797 0.5521 0.2952
vn -0.8904 0.3142 0.3293
vn -0.9394 -0.0000 0.3428
vn -0.8904 -0.3142 0.3293
vn -0.7796 -0.5522 0.2953
vn -0.6602 -0.7081 0.2505
vn -0.5182 -0.8330 0.1938
vn -0.2691 -0.9569 0.1094
vn -0.0128 -0.9996 0.0271
vn 0.0796 -0.9968 -0.0077
vn 0.3492 0.9370 -0.0000
vn 0.0970 0.9953 -0.0000
vn -0.1742 0.9847 -0.0000
vn -0.6545 0.7560 -0.0000
vn -0.6981 0.7160 -0.0000
vn -0.8261 0.5635 -0.0000
vn -0.9478 0.3189 -0.0000
vn -1.0000 -0.0000 -0.0000
vn -0.9478 -0.3189 -0.0000
vn -0.8261 -0.5636 -0.0000
vn -0.6913 -0.7225 -0.0000
vn -0.5420 -0.8403 -0.0000
vn -0.2914 -0.9566 -0.0000
vn -0.0163 -0.9999 -0.0000
vn 0.0829 -0.9966 -0.0000
vn 0.3447 0.9352 0.0813
vn 0.1051 0.9938 0.0364
vn -0.1521 0.9876 -0.0398
vn -0.6416 0.7323 -0.2283
vn -0.6686 0.6998 -0.2514
vn -0.7797 0.5521 -0.2952
vn -0.8904 0.3142 -0.3293
vn -0.9394 -0.0000 -0.3428
vn -0.8904 -0.3142 -0.3293
vn -0.7796 -0.5522 -0.2953
vn -0.6602 -0.7081 -0.2505
vn -0.5182 -0.8330 -0.1938
vn -0.2691 -0.9569 -0.1094
vn -0.0128 -0.9996 -0.0271
vn 0.0796 -0.9968 0.0077
vn 0.3295 0.9342 0.1365
vn 0.1053 0.9935 0.0436
vn -0.1451 0.9876 -0.0601
vn -0.6372 0.7241 -0.2639
vn -0.6643 0.6949 -0.2752
vn -0.7700 0.5526 -0.3189
vn -0.8760 0.3177 -0.3629
vn -0.9239 -0.0000 -0.3827
vn -0.8760 -0.3177 -0.3629
vn -0.7699 -0.5528 -0.3189
vn -0.6554 -0.7048 -0.2715
vn -0.5126 -0.8320 -0.2123
vn -0.2681 -0.9570 -0.1111
vn -0.0206 -0.9998 -0.0085
vn 0.0719 -0.9970 0.0298
vn 0.3012 0.9352 0.1862
vn 0.1000 0.9938 0.0486
vn -0.1357 0.9876 -0.0794
vn -0.6151 0.7323 -0.2922
vn -0.6506 0.6998 -0.2950
vn -0.7601 0.5521 -0.3426
vn -0.8625 0.3142 -0.3968
vn -0.9067 -0.0000 -0.4218
vn -0.8625 -0.3142 -0.3968
vn -0.7601 -0.5522 -0.3425
vn -0.6440 -0.7081 -0.2897
vn -0.5034 -0.8330 -0.2294
vn -0.2676 -0.9569 -0.1129
vn -0.0282 -0.9996 0.0101
vn 0.0618 -0.9968 0.0508
vn 0.2469 0.9370 0.2469
vn 0.0686 0.9953 0.0686
vn -0.1232 0.9847 -0.1232
vn -0.4628 0.7560 -0.4628
vn -0.4936 0.7160 -0.4936
vn -0.5841 0.5635 -0.5841
vn -0.6702 0.3189 -0.6702
vn -0.7071 -0.0000 -0.7071
vn -0.6702 -0.3189 -0.6702
vn -0.5841 -0.5636 -0.5841
vn -0.4889 -0.7225 -0.4889
vn -0.3833 -0.8403 -0.3833
vn -0.2060 -0.9566 -0.2060
vn -0.0115 -0.9999 -0.0115
vn 0.0586 -0.9966 0.0586
vn 0.1863 0.9352 0.3012
vn 0.0486 0.9938 0.1000
vn -0.0794 0.9876 -0.1357
vn -0.2922 0.7323 -0.6151
vn -0.2950 0.6998 -0.6506
vn -0.3426 0.5521 -0.7601
vn -0.3968 0.3142 -0.8625
vn -0.4218 -0.0000 -0.9067
vn -0.3968 -0.3142 -0.8625
vn -0.3425 -0.5522 -0.7601
vn -0.2897 -0.7081 -0.6440
vn -0.2294 -0.8330 -0.5034
vn -0.1129 -0.9569 -0.2676
vn 0.0101 -0.9996 -0.0282
vn 0.0508 -0.9968 0.0618
vn 0.1365 0.9342 0.3295
vn 0.0436 0.9935 0.1053
vn -0.0601 0.9876 -0.1451
vn -0.2639 0.7241 -0.6372
vn -0.2752 0.6949 -0.6643
vn -0.3189 0.5526 -0.7700
vn -0.3629 0.3177 -0.8760
vn -0.3827 -0.0000 -0.9239
vn -0.3629 -0.3177 -0.8760
vn -0.3189 -0.5528 -0.7699
vn -0.2715 -0.7048 -0.6554
vn -0.2123 -0.8320 -0.5126
vn -0.1110 -0.9570 -0.2681
vn -0.0085 -0.9998 -0.0206
vn 0.0298 -0.9970 0.0719
vn 0.0813 0.9352 0.3447
vn 0.0364 0.9938 0.1051
vn -0.0398 0.9876 -0.1521
vn -0.2283 0.7323 -0.6416
vn -0.2514 0.6998 -0.6686
vn -0.2952 0.5521 -0.7797
vn -0.3293 0.3142 -0.8904
vn -0.3428 -0.0000 -0.9394
vn -0.3293 -0.3142 -0.8904
vn -0.2953 -0.5522 -0.7796
vn -0.2505 -0.7081 -0.6602
vn -0.1938 -0.8330 -0.5182
vn -0.1094 -0.9569 -0.2691
vn -0.0271 -0.9996 -0.0128
vn 0.0077 -0.9968 0.0796
vn -0.0000 0.9370 0.3492
vn -0.0000 0.9953 0.0970
vn -0.0000 0.7560 -0.6545
vn -0.0000 0.5635 -0.8261
vn -0.0000 -0.5636 -0.8261
vn -0.0000 -0.8403 -0.5420
vn -0.0000 -0.9566 -0.2914
vn -0.0000 -0.9999 -0.0163
vn -0.0000 -0.9966 0.0829
vn -0.0729 0.9588 0.2746
vn -0.1102 0.9576 0.2660
vn -0.1427 0.9588 0.2457
vn -0.1934 0.9619 0.1934
vn -0.2457 0.9588 0.1427
vn -0.2660 0.9576 0.1102
vn -0.2746 0.9588 0.0729
vn -0.2735 0.9619 -0.0000
vn -0.2746 0.9588 -0.0729
vn -0.2660 0.9576 -0.1102
vn -0.2457 0.9588 -0.1427
vn -0.1934 0.9619 -0.1934
vn -0.1427 0.9588 -0.2457
vn -0.1102 0.9576 -0.2660
vn -0.0729 0.9588 -0.2746
vn -0.0000 0.9619 -0.2735
vn 0.0729 0.9588 -0.2746
vn 0.1102 0.9576 -0.2660
vn 0.1427 0.9588 -0.2457
vn 0.1934 0.9619 -0.1934
vn 0.2457 0.9588 -0.1427
vn 0.2660 0.9576 -0.1102
vn 0.2746 0.9588 -0.0729
vn 0.2735 0.9619 -0.0000
vn 0.2746 0.9588 0.0729
vn 0.2660 0.9576 0.1102
vn 0.2457 0.9588 0.1427
vn 0.1934 0.9619 0.1934
vn 0.1427 0.9588 0.2457
vn 0.1102 0.9576 0.2660
vn 0.0729 0.9588 0.2746
vn -0.0000 0.9619 0.2735
vn 0.1596 0.8586 -0.4871
vn 0.1977 0.8562 -0.4773
vn 0.2316 0.8586 -0.4573
vn 0.3667 0.8551 -0.3667
vn 0.4573 0.8586 -0.2316
vn 0.4773 0.8562 -0.1977
vn 0.4871 0.8586 -0.1596
vn 0.5185 0.8551 -0.0000
vn 0.4871 0.8586 0.1596
vn 0.4773 0.8562 0.1977
vn 0.4573 0.8586 0.2316
vn 0.3667 0.8551 0.3667
vn 0.2316 0.8586 0.4573
vn 0.1977 0.8562 0.4773
vn 0.1596 0.8586 0.4871
vn -0.0000 0.8551 0.5185
vn -0.1596 0.8586 0.4871
vn -0.1977 0.8562 0.4773
vn -0.2316 0.8586 0.4573
vn -0.3667 0.8551 0.3667
vn -0.4573 0.8586 0.2316
vn -0.4773 0.8562 0.1977
vn -0.4871 0.8586 0.1596
vn -0.5185 0.8551 -0.0000
vn -0.4871 0.8586 -0.1596
vn -0.4773 0.8562 -0.1977
vn -0.4573 0.8586 -0.2316
vn -0.3667 0.8551 -0.3667
vn -0.2316 0.8586 -0.4573
vn -0.1977 0.8562 -0.4773
vn -0.1596 0.8586 -0.4871
vn -0.0000 0.8551 -0.5185
vn -0.0000 -0.5451 -0.8384
vn -0.0000 0.7793 -0.6267
vn 0.1817 -0.9510 -0.2501
vn 0.2483 0.9064 -0.3417
vn 0.7974 -0.5451 -0.2591
vn 0.5960 0.7793 -0.1936
vn 0.2940 -0.9510 0.0955
vn 0.4018 0.9064 0.1305
vn 0.4928 -0.5451 0.6783
vn 0.3683 0.7793 0.5070
vn -0.0000 -0.9510 0.3091
vn -0.0000 0.9064 0.4224
vn -0.4928 -0.5451 0.6783
vn -0.3683 0.7793 0.5070
vn -0.2940 -0.9510 0.0955
vn -0.4017 0.9064 0.1306
vn -0.7974 -0.5451 -0.2591
vn -0.5960 0.7793 -0.1936
vn -0.1817 -0.9510 -0.2501
vn -0.2483 0.9064 -0.3418
vn -0.1486 0.9877 0.0483
vt 0.750000 0.312500
vt 0.750000 0.375000
vt 0.718750 0.375000
vt 0.718750 0.312500
vt 0.750000 0.781250
vt 0.750000 0.812500
vt 0.718750 0.812500
vt 0.718750 0.781250
vt 0.750000 0.250000
vt 0.718750 0.250000
vt 0.750000 0.687500
vt 0.750000 0.750000
vt 0.718750 0.750000
vt 0.718750 0.687500
vt 0.750000 0.187500
vt 0.718750 0.187500
vt 0.750000 0.625000
vt 0.718750 0.625000
vt 0.750000 0.125000
vt 0.718750 0.125000
vt 0.750000 0.562500
vt 0.718750 0.562500
vt 0.750000 0.062500
vt 0.718750 0.062500
vt 0.750000 0.500000
vt 0.718750 0.500000
vt 0.750000 0.937500
vt 0.734375 1.000000
vt 0.718750 0.937500
vt 0.734375 0.000000
vt 0.750000 0.437500
vt 0.718750 0.437500
vt 0.750000 0.906250
vt 0.718750 0.906250
vt 0.750000 0.875000
vt 0.718750 0.875000
vt 0.687500 0.937500
vt 0.687500 0.906250
vt 0.687500 0.437500
vt 0.687500 0.375000
vt 0.687500 0.875000
vt 0.687500 0.812500
vt 0.687500 0.312500
vt 0.687500 0.781250
vt 0.687500 0.250000
vt 0.687500 0.750000
vt 0.687500 0.687500
vt 0.687500 0.187500
vt 0.687500 0.625000
vt 0.687500 0.125000
vt 0.687500 0.562500
vt 0.687500 0.062500
vt 0.687500 0.500000
vt 0.703125 1.000000
vt 0.703125 0.000000
vt 0.656250 0.687500
vt 0.656250 0.625000
vt 0.656250 0.187500
vt 0.656250 0.125000
vt 0.656250 0.562500
vt 0.656250 0.062500
vt 0.656250 0.500000
vt 0.671875 1.000000
vt 0.656250 0.937500
vt 0.671875 0.000000
vt 0.656250 0.437500
vt 0.656250 0.906250
vt 0.656250 0.375000
vt 0.656250 0.875000
vt 0.656250 0.812500
vt 0.656250 0.312500
vt 0.656250 0.781250
vt 0.656250 0.250000
vt 0.656250 0.750000
vt 0.625000 0.437500
vt 0.625000 0.375000
vt 0.625000 0.875000
vt 0.625000 0.812500
vt 0.625000 0.312500
vt 0.625000 0.781250
vt 0.625000 0.250000
vt 0.625000 0.750000
vt 0.625000 0.687500
vt 0.625000 0.187500
vt 0.625000 0.625000
vt 0.625000 0.125000
vt 0.625000 0.562500
vt 0.625000 0.062500
vt 0.625000 0.500000
vt 0.640625 1.000000
vt 0.625000 0.937500
vt 0.640625 0.000000
vt 0.625000 0.906250
vt 0.593750 0.187500
vt 0.593750 0.125000
vt 0.593750 0.625000
vt 0.593750 0.562500
vt 0.593750 0.062500
vt 0.593750 0.500000
vt 0.609375 1.000000
vt 0.593750 0.937500
vt 0.609375 0.000000
vt 0.593750 0.437500
vt 0.593750 0.906250
vt 0.593750 0.375000
vt 0.593750 0.875000
vt 0.593750 0.812500
vt 0.593750 0.312500
vt 0.593750 0.781250
vt 0.593750 0.250000
vt 0.593750 0.750000
vt 0.593750 0.687500
vt 0.562500 0.375000
vt 0.562500 0.312500
vt 0.562500 0.812500
vt 0.562500 0.781250
vt 0.562500 0.250000
vt 0.562500 0.750000
vt 0.562500 0.687500
vt 0.562500 0.187500
vt 0.562500 0.625000
vt 0.562500 0.125000
vt 0.562500 0.562500
vt 0.562500 0.062500
vt 0.562500 0.500000
vt 0.578125 1.000000
vt 0.562500 0.937500
vt 0.578125 0.000000
vt 0.562500 0.437500
vt 0.562500 0.906250
vt 0.562500 0.875000
vt 0.531250 0.125000
vt 0.531250 0.062500
vt 0.531250 0.562500
vt 0.531250 0.500000
vt 0.546875 1.000000
vt 0.531250 0.937500
vt 0.546875 0.000000
vt 0.531250 0.437500
vt 0.531250 0.906250
vt 0.531250 0.375000
vt 0.531250 0.875000
vt 0.531250 0.812500
vt 0.531250 0.312500
vt 0.531250 0.781250
vt 0.531250 0.250000
vt 0.531250 0.750000
vt 0.531250 0.687500
vt 0.531250 0.187500
vt 0.531250 0.625000
vt 0.500000 0.812500
vt 0.500000 0.781250
vt 0.500000 0.312500
vt 0.500000 0.250000
vt 0.500000 0.750000
vt 0.500000 0.687500
vt 0.500000 0.187500
vt 0.500000 0.625000
vt 0.500000 0.125000
vt 0.500000 0.562500
vt 0.500000 0.062500
vt 0.500000 0.500000
vt 0.515625 1.000000
vt 0.500000 0.937500
vt 0.515625 0.000000
vt 0.500000 0.437500
vt 0.500000 0.906250
vt 0.500000 0.375000
vt 0.500000 0.875000
vt 0.468750 0.562500
vt 0.468750 0.500000
vt 0.484375 1.000000
vt 0.468750 0.937500
vt 0.484375 0.000000
vt 0.468750 0.062500
vt 0.468750 0.437500
vt 0.468750 0.906250
vt 0.468750 0.375000
vt 0.468750 0.875000
vt 0.468750 0.812500
vt 0.468750 0.312500
vt 0.468750 0.781250
vt 0.468750 0.250000
vt 0.468750 0.750000
vt 0.468750 0.687500
vt 0.468750 0.187500
vt 0.468750 0.625000
vt 0.468750 0.125000
vt 0.437500 0.312500
vt 0.437500 0.250000
vt 0.437500 0.750000
vt 0.437500 0.687500
vt 0.437500 0.187500
vt 0.437500 0.625000
vt 0.437500 0.125000
vt 0.437500 0.562500
vt 0.437500 0.062500
vt 0.437500 0.500000
vt 0.453125 1.000000
vt 0.437500 0.937500
vt 0.453125 0.000000
vt 0.437500 0.437500
vt 0.437500 0.906250
vt 0.437500 0.375000
vt 0.437500 0.875000
vt 0.437500 0.812500
vt 0.437500 0.781250
vt 0.421875 1.000000
vt 0.406250 0.937500
vt 0.421875 0.000000
vt 0.406250 0.062500
vt 0.406250 0.500000
vt 0.406250 0.437500
vt 0.406250 0.906250
vt 0.406250 0.375000
vt 0.406250 0.875000
vt 0.406250 0.812500
vt 0.406250 0.312500
vt 0.406250 0.781250
vt 0.406250 0.250000
vt 0.406250 0.750000
vt 0.406250 0.687500
vt 0.406250 0.187500
vt 0.406250 0.625000
vt 0.406250 0.125000
vt 0.406250 0.562500
vt 0.375000 0.750000
vt 0.375000 0.687500
vt 0.375000 0.250000
vt 0.375000 0.187500
vt 0.375000 0.625000
vt 0.375000 0.125000
vt 0.375000 0.562500
vt 0.375000 0.062500
vt 0.375000 0.500000
vt 0.390625 1.000000
vt 0.375000 0.937500
vt 0.390625 0.000000
vt 0.375000 0.437500
vt 0.375000 0.906250
vt 0.375000 0.375000
vt 0.375000 0.875000
vt 0.375000 0.812500
vt 0.375000 0.312500
vt 0.375000 0.781250
vt 0.343750 0.500000
vt 0.343750 0.437500
vt 0.343750 0.937500
vt 0.343750 0.906250
vt 0.343750 0.375000
vt 0.343750 0.875000
vt 0.343750 0.812500
vt 0.343750 0.312500
vt 0.343750 0.781250
vt 0.343750 0.250000
vt 0.343750 0.750000
vt 0.343750 0.687500
vt 0.343750 0.187500
vt 0.343750 0.625000
vt 0.343750 0.125000
vt 0.343750 0.562500
vt 0.343750 0.062500
vt 0.359375 1.000000
vt 0.359375 0.000000
vt 0.312500 0.250000
vt 0.312500 0.187500
vt 0.312500 0.687500
vt 0.312500 0.625000
vt 0.312500 0.125000
vt 0.312500 0.562500
vt 0.312500 0.062500
vt 0.312500 0.500000
vt 0.328125 1.000000
vt 0.312500 0.937500
vt 0.328125 0.000000
vt 0.312500 0.437500
vt 0.312500 0.906250
vt 0.312500 0.375000
vt 0.312500 0.875000
vt 0.312500 0.812500
vt 0.312500 0.312500
vt 0.312500 0.781250
vt 0.312500 0.750000
vt 0.281250 0.437500
vt 0.281250 0.375000
vt 0.281250 0.875000
vt 0.281250 0.812500
vt 0.281250 0.312500
vt 0.281250 0.781250
vt 0.281250 0.250000
vt 0.281250 0.750000
vt 0.281250 0.687500
vt 0.281250 0.187500
vt 0.281250 0.625000
vt 0.281250 0.125000
vt 0.281250 0.562500
vt 0.281250 0.062500
vt 0.281250 0.500000
vt 0.296875 1.000000
vt 0.281250 0.937500
vt 0.296875 0.000000
vt 0.281250 0.906250
vt 0.250000 0.187500
vt 0.250000 0.125000
vt 0.250000 0.625000
vt 0.250000 0.562500
vt 0.250000 0.062500
vt 0.250000 0.500000
vt 0.265625 1.000000
vt 0.250000 0.937500
vt 0.265625 0.000000
vt 0.250000 0.437500
vt 0.250000 0.906250
vt 0.250000 0.375000
vt 0.250000 0.875000
vt 0.250000 0.812500
vt 0.250000 0.312500
vt 0.250000 0.781250
vt 0.250000 0.250000
vt 0.250000 0.750000
vt 0.250000 0.687500
vt 0.218750 0.875000
vt 0.218750 0.812500
vt 0.218750 0.375000
vt 0.218750 0.312500
vt 0.218750 0.781250
vt 0.218750 0.250000
vt 0.218750 0.750000
vt 0.218750 0.687500
vt 0.218750 0.187500
vt 0.218750 0.625000
vt 0.218750 0.125000
vt 0.218750 0.562500
vt 0.218750 0.062500
vt 0.218750 0.500000
vt 0.234375 1.000000
vt 0.218750 0.937500
vt 0.234375 0.000000
vt 0.218750 0.437500
vt 0.218750 0.906250
vt 0.187500 0.625000
vt 0.187500 0.562500
vt 0.187500 0.125000
vt 0.187500 0.062500
vt 0.187500 0.500000
vt 0.203125 1.000000
vt 0.187500 0.937500
vt 0.203125 0.000000
vt 0.187500 0.437500
vt 0.187500 0.906250
vt 0.187500 0.375000
vt 0.187500 0.875000
vt 0.187500 0.812500
vt 0.187500 0.312500
vt 0.187500 0.781250
vt 0.187500 0.250000
vt 0.187500 0.750000
vt 0.187500 0.687500
vt 0.187500 0.187500
vt 0.156250 0.375000
vt 0.156250 0.312500
vt 0.156250 0.812500
vt 0.156250 0.781250
vt 0.156250 0.250000
vt 0.156250 0.750000
vt 0.156250 0.687500
vt 0.156250 0.187500
vt 0.156250 0.625000
vt 0.156250 0.125000
vt 0.156250 0.562500
vt 0.156250 0.062500
vt 0.156250 0.500000
vt 0.171875 1.000000
vt 0.156250 0.937500
vt 0.171875 0.000000
vt 0.156250 0.437500
vt 0.156250 0.906250
vt 0.156250 0.875000
vt 0.125000 0.125000
vt 0.125000 0.062500
vt 0.125000 0.562500
vt 0.125000 0.500000
vt 0.140625 1.000000
vt 0.125000 0.937500
vt 0.140625 0.000000
vt 0.125000 0.437500
vt 0.125000 0.906250
vt 0.125000 0.375000
vt 0.125000 0.875000
vt 0.125000 0.812500
vt 0.125000 0.312500
vt 0.125000 0.781250
vt 0.125000 0.250000
vt 0.125000 0.750000
vt 0.125000 0.687500
vt 0.125000 0.187500
vt 0.125000 0.625000
vt 0.093750 0.812500
vt 0.093750 0.781250
vt 0.093750 0.312500
vt 0.093750 0.250000
vt 0.093750 0.750000
vt 0.093750 0.687500
vt 0.093750 0.187500
vt 0.093750 0.625000
vt 0.093750 0.125000
vt 0.093750 0.562500
vt 0.093750 0.062500
vt 0.093750 0.500000
vt 0.109375 1.000000
vt 0.093750 0.937500
vt 0.109375 0.000000
vt 0.093750 0.437500
vt 0.093750 0.906250
vt 0.093750 0.375000
vt 0.093750 0.875000
vt 0.062500 0.562500
vt 0.062500 0.500000
vt 0.078125 1.000000
vt 0.062500 0.937500
vt 0.078125 0.000000
vt 0.062500 0.062500
vt 0.062500 0.437500
vt 0.062500 0.906250
vt 0.062500 0.375000
vt 0.062500 0.875000
vt 0.062500 0.812500
vt 0.062500 0.312500
vt 0.062500 0.781250
vt 0.062500 0.250000
vt 0.062500 0.750000
vt 0.062500 0.687500
vt 0.062500 0.187500
vt 0.062500 0.625000
vt 0.062500 0.125000
vt 0.031250 0.312500
vt 0.031250 0.250000
vt 0.031250 0.750000
vt 0.031250 0.687500
vt 0.031250 0.187500
vt 0.031250 0.625000
vt 0.031250 0.125000
vt 0.031250 0.562500
vt 0.031250 0.062500
vt 0.031250 0.500000
vt 0.046875 1.000000
vt 0.031250 0.937500
vt 0.046875 0.000000
vt 0.031250 0.437500
vt 0.031250 0.906250
vt 0.031250 0.375000
vt 0.031250 0.875000
vt 0.031250 0.812500
vt 0.031250 0.781250
vt 0.015625 0.000000
vt 0.000000 0.062500
vt 0.000000 0.500000
vt 0.000000 0.437500
vt 0.000000 0.937500
vt 0.000000 0.906250
vt 0.000000 0.375000
vt 0.000000 0.875000
vt 0.000000 0.812500
vt 0.000000 0.312500
vt 0.000000 0.781250
vt 0.000000 0.250000
vt 0.000000 0.750000
vt 0.000000 0.687500
vt 0.000000 0.187500
vt 0.000000 0.625000
vt 0.000000 0.125000
vt 0.000000 0.562500
vt 0.015625 1.000000
vt 1.000000 0.187500
vt 1.000000 0.250000
vt 0.968750 0.250000
vt 0.968750 0.187500
vt 1.000000 0.625000
vt 1.000000 0.687500
vt 0.968750 0.687500
vt 0.968750 0.625000
vt 1.000000 0.125000
vt 0.968750 0.125000
vt 1.000000 0.562500
vt 0.968750 0.562500
vt 1.000000 0.062500
vt 0.968750 0.062500
vt 1.000000 0.500000
vt 0.968750 0.500000
vt 1.000000 0.937500
vt 0.984375 1.000000
vt 0.968750 0.937500
vt 0.984375 0.000000
vt 1.000000 0.437500
vt 0.968750 0.437500
vt 1.000000 0.906250
vt 0.968750 0.906250
vt 1.000000 0.375000
vt 0.968750 0.375000
vt 1.000000 0.812500
vt 1.000000 0.875000
vt 0.968750 0.875000
vt 0.968750 0.812500
vt 1.000000 0.312500
vt 0.968750 0.312500
vt 1.000000 0.781250
vt 0.968750 0.781250
vt 1.000000 0.750000
vt 0.968750 0.750000
vt 0.937500 0.937500
vt 0.937500 0.906250
vt 0.937500 0.437500
vt 0.937500 0.375000
vt 0.937500 0.875000
vt 0.937500 0.812500
vt 0.937500 0.312500
vt 0.937500 0.781250
vt 0.937500 0.250000
vt 0.937500 0.750000
vt 0.937500 0.687500
vt 0.937500 0.187500
vt 0.937500 0.625000
vt 0.937500 0.125000
vt 0.937500 0.562500
vt 0.937500 0.062500
vt 0.937500 0.500000
vt 0.953125 1.000000
vt 0.953125 0.000000
vt 0.906250 0.687500
vt 0.906250 0.625000
vt 0.906250 0.187500
vt 0.906250 0.125000
vt 0.906250 0.562500
vt 0.906250 0.062500
vt 0.906250 0.500000
vt 0.921875 1.000000
vt 0.906250 0.937500
vt 0.921875 0.000000
vt 0.906250 0.437500
vt 0.906250 0.906250
vt 0.906250 0.375000
vt 0.906250 0.875000
vt 0.906250 0.812500
vt 0.906250 0.312500
vt 0.906250 0.781250
vt 0.906250 0.250000
vt 0.906250 0.750000
vt 0.875000 0.437500
vt 0.875000 0.375000
vt 0.875000 0.875000
vt 0.875000 0.812500
vt 0.875000 0.312500
vt 0.875000 0.781250
vt 0.875000 0.250000
vt 0.875000 0.750000
vt 0.875000 0.687500
vt 0.875000 0.187500
vt 0.875000 0.625000
vt 0.875000 0.125000
vt 0.875000 0.562500
vt 0.875000 0.062500
vt 0.875000 0.500000
vt 0.890625 1.000000
vt 0.875000 0.937500
vt 0.890625 0.000000
vt 0.875000 0.906250
vt 0.843750 0.187500
vt 0.843750 0.125000
vt 0.843750 0.625000
vt 0.843750 0.562500
vt 0.843750 0.062500
vt 0.843750 0.500000
vt 0.859375 1.000000
vt 0.843750 0.937500
vt 0.859375 0.000000
vt 0.843750 0.437500
vt 0.843750 0.906250
vt 0.843750 0.375000
vt 0.843750 0.875000
vt 0.843750 0.812500
vt 0.843750 0.312500
vt 0.843750 0.781250
vt 0.843750 0.250000
vt 0.843750 0.750000
vt 0.843750 0.687500
vt 0.812500 0.875000
vt 0.812500 0.812500
vt 0.812500 0.375000
vt 0.812500 0.312500
vt 0.812500 0.781250
vt 0.812500 0.250000
vt 0.812500 0.750000
vt 0.812500 0.687500
vt 0.812500 0.187500
vt 0.812500 0.625000
vt 0.812500 0.125000
vt 0.812500 0.562500
vt 0.812500 0.062500
vt 0.812500 0.500000
vt 0.828125 1.000000
vt 0.812500 0.937500
vt 0.828125 0.000000
vt 0.812500 0.437500
vt 0.812500 0.906250
vt 0.781250 0.625000
vt 0.781250 0.562500
vt 0.781250 0.125000
vt 0.781250 0.062500
vt 0.781250 0.500000
vt 0.796875 1.000000
vt 0.781250 0.937500
vt 0.796875 0.000000
vt 0.781250 0.437500
vt 0.781250 0.906250
vt 0.781250 0.375000
vt 0.781250 0.875000
vt 0.781250 0.812500
vt 0.781250 0.312500
vt 0.781250 0.781250
vt 0.781250 0.250000
vt 0.781250 0.750000
vt 0.781250 0.687500
vt 0.781250 0.187500
vt 0.765625 1.000000
vt 0.765625 0.000000
vt 1.000000 1.000000
vt 0.900000 1.000000
vt 0.900000 0.500000
vt 0.800000 1.000000
vt 0.800000 0.500000
vt 0.700000 1.000000
vt 0.700000 0.500000
vt 0.600000 1.000000
vt 0.600000 0.500000
vt 0.500000 1.000000
vt 0.500000 0.500000
vt 0.400000 1.000000
vt 0.400000 0.500000
vt 0.300000 1.000000
vt 0.300000 0.500000
vt 0.200000 1.000000
vt 0.200000 0.500000
vt 0.391068 0.444164
vt 0.125755 0.209630
vt 0.302004 0.266897
vt 0.478254 0.324164
vt 0.100000 1.000000
vt 0.100000 0.500000
vt -0.000000 1.000000
vt -0.000000 0.500000
vt 0.750000 0.490000
vt 0.874252 0.209628
vt 0.608932 0.444164
vt 0.478254 0.175836
vt 0.021746 0.324164
vt 0.021746 0.175836
vt 0.391068 0.055836
vt 0.250000 0.490000
vt 0.108932 0.444164
vt 0.250000 0.010000
vt 0.108932 0.055836
vt 0.521746 0.324164
vt 0.521746 0.175836
vt 0.750000 0.010000
vt 0.891068 0.055836
vt 0.891068 0.444164
vt 0.978254 0.324164
vt 0.608932 0.055836
vt 0.978254 0.175836
s 1
usemtl Material.012
f 6/1/6 478/2/478 16/3/16 17/4/17
f 546/5/546 1/6/1 9/7/9 515/8/515
f 479/9/479 6/1/6 17/4/17 18/10/18
f 2/11/2 476/12/476 10/13/10 11/14/11
f 480/15/480 479/9/479 18/10/18 19/16/19
f 477/17/477 2/11/2 11/14/11 12/18/12
f 481/19/481 480/15/480 19/16/19 20/20/20
f 3/21/3 477/17/477 12/18/12 13/22/13
f 482/23/482 481/19/481 20/20/20 21/24/21
f 4/25/4 3/21/3 13/22/13 14/26/14
f 474/27/474 82/28/82 7/29/7
f 308/30/308 482/23/482 21/24/21
f 5/31/5 4/25/4 14/26/14 15/32/15
f 514/33/514 474/27/474 7/29/7 483/34/483
f 478/2/478 5/31/5 15/32/15 16/3/16
f 1/6/1 475/35/475 8/36/8 9/7/9
f 483/34/483 7/29/7 22/37/22 484/38/484
f 16/3/16 15/32/15 30/39/30 31/40/31
f 9/7/9 8/36/8 23/41/23 24/42/24
f 17/4/17 16/3/16 31/40/31 32/43/32
f 515/8/515 9/7/9 24/42/24 516/44/516
f 18/10/18 17/4/17 32/43/32 33/45/33
f 11/14/11 10/13/10 25/46/25 26/47/26
f 19/16/19 18/10/18 33/45/33 34/48/34
f 12/18/12 11/14/11 26/47/26 27/49/27
f 20/20/20 19/16/19 34/48/34 35/50/35
f 13/22/13 12/18/12 27/49/27 28/51/28
f 21/24/21 20/20/20 35/50/35 36/52/36
f 14/26/14 13/22/13 28/51/28 29/53/29
f 7/29/7 82/54/82 22/37/22
f 308/55/308 21/24/21 36/52/36
f 15/32/15 14/26/14 29/53/29 30/39/30
f 27/49/27 26/47/26 41/56/41 42/57/42
f 35/50/35 34/48/34 49/58/49 50/59/50
f 28/51/28 27/49/27 42/57/42 43/60/43
f 36/52/36 35/50/35 50/59/50 51/61/51
f 29/53/29 28/51/28 43/60/43 44/62/44
f 22/37/22 82/63/82 37/64/37
f 308/65/308 36/52/36 51/61/51
f 30/39/30 29/53/29 44/62/44 45/66/45
f 484/38/484 22/37/22 37/64/37 485/67/485
f 31/40/31 30/39/30 45/66/45 46/68/46
f 24/42/24 23/41/23 38/69/38 39/70/39
f 32/43/32 31/40/31 46/68/46 47/71/47
f 516/44/516 24/42/24 39/70/39 517/72/517
f 33/45/33 32/43/32 47/71/47 48/73/48
f 26/47/26 25/46/25 40/74/40 41/56/41
f 34/48/34 33/45/33 48/73/48 49/58/49
f 46/68/46 45/66/45 60/75/60 61/76/61
f 39/70/39 38/69/38 53/77/53 54/78/54
f 47/71/47 46/68/46 61/76/61 62/79/62
f 517/72/517 39/70/39 54/78/54 518/80/518
f 48/73/48 47/71/47 62/79/62 63/81/63
f 41/56/41 40/74/40 55/82/55 56/83/56
f 49/58/49 48/73/48 63/81/63 64/84/64
f 42/57/42 41/56/41 56/83/56 57/85/57
f 50/59/50 49/58/49 64/84/64 65/86/65
f 43/60/43 42/57/42 57/85/57 58/87/58
f 51/61/51 50/59/50 65/86/65 66/88/66
f 44/62/44 43/60/43 58/87/58 59/89/59
f 37/64/37 82/90/82 52/91/52
f 308/92/308 51/61/51 66/88/66
f 45/66/45 44/62/44 59/89/59 60/75/60
f 485/67/485 37/64/37 52/91/52 486/93/486
f 65/86/65 64/84/64 79/94/79 80/95/80
f 58/87/58 57/85/57 72/96/72 73/97/73
f 66/88/66 65/86/65 80/95/80 81/98/81
f 59/89/59 58/87/58 73/97/73 74/99/74
f 52/91/52 82/100/82 67/101/67
f 308/102/308 66/88/66 81/98/81
f 60/75/60 59/89/59 74/99/74 75/103/75
f 486/93/486 52/91/52 67/101/67 487/104/487
f 61/76/61 60/75/60 75/103/75 76/105/76
f 54/78/54 53/77/53 68/106/68 69/107/69
f 62/79/62 61/76/61 76/105/76 77/108/77
f 518/80/518 54/78/54 69/107/69 519/109/519
f 63/81/63 62/79/62 77/108/77 78/110/78
f 56/83/56 55/82/55 70/111/70 71/112/71
f 64/84/64 63/81/63 78/110/78 79/94/79
f 57/85/57 56/83/56 71/112/71 72/96/72
f 77/108/77 76/105/76 92/113/92 93/114/93
f 519/109/519 69/107/69 85/115/85 520/116/520
f 78/110/78 77/108/77 93/114/93 94/117/94
f 71/112/71 70/111/70 86/118/86 87/119/87
f 79/94/79 78/110/78 94/117/94 95/120/95
f 72/96/72 71/112/71 87/119/87 88/121/88
f 80/95/80 79/94/79 95/120/95 96/122/96
f 73/97/73 72/96/72 88/121/88 89/123/89
f 81/98/81 80/95/80 96/122/96 97/124/97
f 74/99/74 73/97/73 89/123/89 90/125/90
f 67/101/67 82/126/82 83/127/83
f 308/128/308 81/98/81 97/124/97
f 75/103/75 74/99/74 90/125/90 91/129/91
f 487/104/487 67/101/67 83/127/83 488/130/488
f 76/105/76 75/103/75 91/129/91 92/113/92
f 69/107/69 68/106/68 84/131/84 85/115/85
f 97/124/97 96/122/96 111/132/111 112/133/112
f 90/125/90 89/123/89 104/134/104 105/135/105
f 83/127/83 82/136/82 98/137/98
f 308/138/308 97/124/97 112/133/112
f 91/129/91 90/125/90 105/135/105 106/139/106
f 488/130/488 83/127/83 98/137/98 489/140/489
f 92/113/92 91/129/91 106/139/106 107/141/107
f 85/115/85 84/131/84 99/142/99 100/143/100
f 93/114/93 92/113/92 107/141/107 108/144/108
f 520/116/520 85/115/85 100/143/100 521/145/521
f 94/117/94 93/114/93 108/144/108 109/146/109
f 87/119/87 86/118/86 101/147/101 102/148/102
f 95/120/95 94/117/94 109/146/109 110/149/110
f 88/121/88 87/119/87 102/148/102 103/150/103
f 96/122/96 95/120/95 110/149/110 111/132/111
f 89/123/89 88/121/88 103/150/103 104/134/104
f 521/145/521 100/143/100 115/151/115 522/152/522
f 109/146/109 108/144/108 123/153/123 124/154/124
f 102/148/102 101/147/101 116/155/116 117/156/117
f 110/149/110 109/146/109 124/154/124 125/157/125
f 103/150/103 102/148/102 117/156/117 118/158/118
f 111/132/111 110/149/110 125/157/125 126/159/126
f 104/134/104 103/150/103 118/158/118 119/160/119
f 112/133/112 111/132/111 126/159/126 127/161/127
f 105/135/105 104/134/104 119/160/119 120/162/120
f 98/137/98 82/163/82 113/164/113
f 308/165/308 112/133/112 127/161/127
f 106/139/106 105/135/105 120/162/120 121/166/121
f 489/140/489 98/137/98 113/164/113 490/167/490
f 107/141/107 106/139/106 121/166/121 122/168/122
f 100/143/100 99/142/99 114/169/114 115/151/115
f 108/144/108 107/141/107 122/168/122 123/153/123
f 120/162/120 119/160/119 134/170/134 135/171/135
f 113/164/113 82/172/82 128/173/128
f 308/174/308 127/161/127 142/175/142
f 121/166/121 120/162/120 135/171/135 136/176/136
f 490/167/490 113/164/113 128/173/128 491/177/491
f 122/168/122 121/166/121 136/176/136 137/178/137
f 115/151/115 114/169/114 129/179/129 130/180/130
f 123/153/123 122/168/122 137/178/137 138/181/138
f 522/152/522 115/151/115 130/180/130 523/182/523
f 124/154/124 123/153/123 138/181/138 139/183/139
f 117/156/117 116/155/116 131/184/131 132/185/132
f 125/157/125 124/154/124 139/183/139 140/186/140
f 118/158/118 117/156/117 132/185/132 133/187/133
f 126/159/126 125/157/125 140/186/140 141/188/141
f 119/160/119 118/158/118 133/187/133 134/170/134
f 127/161/127 126/159/126 141/188/141 142/175/142
f 139/183/139 138/181/138 153/189/153 154/190/154
f 132/185/132 131/184/131 146/191/146 147/192/147
f 140/186/140 139/183/139 154/190/154 155/193/155
f 133/187/133 132/185/132 147/192/147 148/194/148
f 141/188/141 140/186/140 155/193/155 156/195/156
f 134/170/134 133/187/133 148/194/148 149/196/149
f 142/175/142 141/188/141 156/195/156 157/197/157
f 135/171/135 134/170/134 149/196/149 150/198/150
f 128/173/128 82/199/82 143/200/143
f 308/201/308 142/175/142 157/197/157
f 136/176/136 135/171/135 150/198/150 151/202/151
f 491/177/491 128/173/128 143/200/143 492/203/492
f 137/178/137 136/176/136 151/202/151 152/204/152
f 130/180/130 129/179/129 144/205/144 145/206/145
f 138/181/138 137/178/137 152/204/152 153/189/153
f 523/182/523 130/180/130 145/206/145 524/207/524
f 143/200/143 82/208/82 158/209/158
f 308/210/308 157/197/157 172/211/172
f 151/202/151 150/198/150 165/212/165 166/213/166
f 492/203/492 143/200/143 158/209/158 493/214/493
f 152/204/152 151/202/151 166/213/166 167/215/167
f 145/206/145 144/205/144 159/216/159 160/217/160
f 153/189/153 152/204/152 167/215/167 168/218/168
f 524/207/524 145/206/145 160/217/160 525/219/525
f 154/190/154 153/189/153 168/218/168 169/220/169
f 147/192/147 146/191/146 161/221/161 162/222/162
f 155/193/155 154/190/154 169/220/169 170/223/170
f 148/194/148 147/192/147 162/222/162 163/224/163
f 156/195/156 155/193/155 170/223/170 171/225/171
f 149/196/149 148/194/148 163/224/163 164/226/164
f 157/197/157 156/195/156 171/225/171 172/211/172
f 150/198/150 149/196/149 164/226/164 165/212/165
f 162/222/162 161/221/161 176/227/176 177/228/177
f 170/223/170 169/220/169 184/229/184 185/230/185
f 163/224/163 162/222/162 177/228/177 178/231/178
f 171/225/171 170/223/170 185/230/185 186/232/186
f 164/226/164 163/224/163 178/231/178 179/233/179
f 172/211/172 171/225/171 186/232/186 187/234/187
f 165/212/165 164/226/164 179/233/179 180/235/180
f 158/209/158 82/236/82 173/237/173
f 308/238/308 172/211/172 187/234/187
f 166/213/166 165/212/165 180/235/180 181/239/181
f 493/214/493 158/209/158 173/237/173 494/240/494
f 167/215/167 166/213/166 181/239/181 182/241/182
f 160/217/160 159/216/159 174/242/174 175/243/175
f 168/218/168 167/215/167 182/241/182 183/244/183
f 525/219/525 160/217/160 175/243/175 526/245/526
f 169/220/169 168/218/168 183/244/183 184/229/184
f 181/239/181 180/235/180 195/246/195 196/247/196
f 494/240/494 173/237/173 188/248/188 495/249/495
f 182/241/182 181/239/181 196/247/196 197/250/197
f 175/243/175 174/242/174 189/251/189 190/252/190
f 183/244/183 182/241/182 197/250/197 198/253/198
f 526/245/526 175/243/175 190/252/190 527/254/527
f 184/229/184 183/244/183 198/253/198 199/255/199
f 177/228/177 176/227/176 191/256/191 192/257/192
f 185/230/185 184/229/184 199/255/199 200/258/200
f 178/231/178 177/228/177 192/257/192 193/259/193
f 186/232/186 185/230/185 200/258/200 201/260/201
f 179/233/179 178/231/178 193/259/193 194/261/194
f 187/234/187 186/232/186 201/260/201 202/262/202
f 180/235/180 179/233/179 194/261/194 195/246/195
f 173/237/173 82/263/82 188/248/188
f 308/264/308 187/234/187 202/262/202
f 200/258/200 199/255/199 214/265/214 215/266/215
f 193/259/193 192/257/192 207/267/207 208/268/208
f 201/260/201 200/258/200 215/266/215 216/269/216
f 194/261/194 193/259/193 208/268/208 209/270/209
f 202/262/202 201/260/201 216/269/216 217/271/217
f 195/246/195 194/261/194 209/270/209 210/272/210
f 188/248/188 82/273/82 203/274/203
f 308/275/308 202/262/202 217/271/217
f 196/247/196 195/246/195 210/272/210 211/276/211
f 495/249/495 188/248/188 203/274/203 496/277/496
f 197/250/197 196/247/196 211/276/211 212/278/212
f 190/252/190 189/251/189 204/279/204 205/280/205
f 198/253/198 197/250/197 212/278/212 213/281/213
f 527/254/527 190/252/190 205/280/205 528/282/528
f 199/255/199 198/253/198 213/281/213 214/265/214
f 192/257/192 191/256/191 206/283/206 207/267/207
f 212/278/212 211/276/211 226/284/226 227/285/227
f 205/280/205 204/279/204 219/286/219 220/287/220
f 213/281/213 212/278/212 227/285/227 228/288/228
f 528/282/528 205/280/205 220/287/220 529/289/529
f 214/265/214 213/281/213 228/288/228 229/290/229
f 207/267/207 206/283/206 221/291/221 222/292/222
f 215/266/215 214/265/214 229/290/229 230/293/230
f 208/268/208 207/267/207 222/292/222 223/294/223
f 216/269/216 215/266/215 230/293/230 231/295/231
f 209/270/209 208/268/208 223/294/223 224/296/224
f 217/271/217 216/269/216 231/295/231 232/297/232
f 210/272/210 209/270/209 224/296/224 225/298/225
f 203/274/203 82/299/82 218/300/218
f 308/301/308 217/271/217 232/297/232
f 211/276/211 210/272/210 225/298/225 226/284/226
f 496/277/496 203/274/203 218/300/218 497/302/497
f 231/295/231 230/293/230 245/303/245 246/304/246
f 224/296/224 223/294/223 238/305/238 239/306/239
f 232/297/232 231/295/231 246/304/246 247/307/247
f 225/298/225 224/296/224 239/306/239 240/308/240
f 218/300/218 82/309/82 233/310/233
f 308/311/308 232/297/232 247/307/247
f 226/284/226 225/298/225 240/308/240 241/312/241
f 497/302/497 218/300/218 233/310/233 498/313/498
f 227/285/227 226/284/226 241/312/241 242/314/242
f 220/287/220 219/286/219 234/315/234 235/316/235
f 228/288/228 227/285/227 242/314/242 243/317/243
f 529/289/529 220/287/220 235/316/235 530/318/530
f 229/290/229 228/288/228 243/317/243 244/319/244
f 222/292/222 221/291/221 236/320/236 237/321/237
f 230/293/230 229/290/229 244/319/244 245/303/245
f 223/294/223 222/292/222 237/321/237 238/305/238
f 235/316/235 234/315/234 249/322/249 250/323/250
f 243/317/243 242/314/242 257/324/257 258/325/258
f 530/318/530 235/316/235 250/323/250 531/326/531
f 244/319/244 243/317/243 258/325/258 259/327/259
f 237/321/237 236/320/236 251/328/251 252/329/252
f 245/303/245 244/319/244 259/327/259 260/330/260
f 238/305/238 237/321/237 252/329/252 253/331/253
f 246/304/246 245/303/245 260/330/260 261/332/261
f 239/306/239 238/305/238 253/331/253 254/333/254
f 247/307/247 246/304/246 261/332/261 262/334/262
f 240/308/240 239/306/239 254/333/254 255/335/255
f 233/310/233 82/336/82 248/337/248
f 308/338/308 247/307/247 262/334/262
f 241/312/241 240/308/240 255/335/255 256/339/256
f 498/313/498 233/310/233 248/337/248 499/340/499
f 242/314/242 241/312/241 256/339/256 257/324/257
f 254/333/254 253/331/253 268/341/268 269/342/269
f 262/334/262 261/332/261 276/343/276 277/344/277
f 255/335/255 254/333/254 269/342/269 270/345/270
f 248/337/248 82/346/82 263/347/263
f 308/348/308 262/334/262 277/344/277
f 256/339/256 255/335/255 270/345/270 271/349/271
f 499/340/499 248/337/248 263/347/263 500/350/500
f 257/324/257 256/339/256 271/349/271 272/351/272
f 250/323/250 249/322/249 264/352/264 265/353/265
f 258/325/258 257/324/257 272/351/272 273/354/273
f 531/326/531 250/323/250 265/353/265 532/355/532
f 259/327/259 258/325/258 273/354/273 274/356/274
f 252/329/252 251/328/251 266/357/266 267/358/267
f 260/330/260 259/327/259 274/356/274 275/359/275
f 253/331/253 252/329/252 267/358/267 268/341/268
f 261/332/261 260/330/260 275/359/275 276/343/276
f 273/354/273 272/351/272 287/360/287 288/361/288
f 532/355/532 265/353/265 280/362/280 533/363/533
f 274/356/274 273/354/273 288/361/288 289/364/289
f 267/358/267 266/357/266 281/365/281 282/366/282
f 275/359/275 274/356/274 289/364/289 290/367/290
f 268/341/268 267/358/267 282/366/282 283/368/283
f 276/343/276 275/359/275 290/367/290 291/369/291
f 269/342/269 268/341/268 283/368/283 284/370/284
f 277/344/277 276/343/276 291/369/291 292/371/292
f 270/345/270 269/342/269 284/370/284 285/372/285
f 263/347/263 82/373/82 278/374/278
f 308/375/308 277/344/277 292/371/292
f 271/349/271 270/345/270 285/372/285 286/376/286
f 500/350/500 263/347/263 278/374/278 501/377/501
f 272/351/272 271/349/271 286/376/286 287/360/287
f 265/353/265 264/352/264 279/378/279 280/362/280
f 292/371/292 291/369/291 306/379/306 307/380/307
f 285/372/285 284/370/284 299/381/299 300/382/300
f 278/374/278 82/383/82 293/384/293
f 308/385/308 292/371/292 307/380/307
f 286/376/286 285/372/285 300/382/300 301/386/301
f 501/377/501 278/374/278 293/384/293 502/387/502
f 287/360/287 286/376/286 301/386/301 302/388/302
f 280/362/280 279/378/279 294/389/294 295/390/295
f 288/361/288 287/360/287 302/388/302 303/391/303
f 533/363/533 280/362/280 295/390/295 534/392/534
f 289/364/289 288/361/288 303/391/303 304/393/304
f 282/366/282 281/365/281 296/394/296 297/395/297
f 290/367/290 289/364/289 304/393/304 305/396/305
f 283/368/283 282/366/282 297/395/297 298/397/298
f 291/369/291 290/367/290 305/396/305 306/379/306
f 284/370/284 283/368/283 298/397/298 299/381/299
f 534/392/534 295/390/295 311/398/311 535/399/535
f 304/393/304 303/391/303 319/400/319 320/401/320
f 297/395/297 296/394/296 312/402/312 313/403/313
f 305/396/305 304/393/304 320/401/320 321/404/321
f 298/397/298 297/395/297 313/403/313 314/405/314
f 306/379/306 305/396/305 321/404/321 322/406/322
f 299/381/299 298/397/298 314/405/314 315/407/315
f 307/380/307 306/379/306 322/406/322 323/408/323
f 300/382/300 299/381/299 315/407/315 316/409/316
f 293/384/293 82/410/82 309/411/309
f 308/412/308 307/380/307 323/408/323
f 301/386/301 300/382/300 316/409/316 317/413/317
f 502/387/502 293/384/293 309/411/309 503/414/503
f 302/388/302 301/386/301 317/413/317 318/415/318
f 295/390/295 294/389/294 310/416/310 311/398/311
f 303/391/303 302/388/302 318/415/318 319/400/319
f 316/409/316 315/407/315 330/417/330 331/418/331
f 309/411/309 82/419/82 324/420/324
f 308/421/308 323/408/323 338/422/338
f 317/413/317 316/409/316 331/418/331 332/423/332
f 503/414/503 309/411/309 324/420/324 504/424/504
f 318/415/318 317/413/317 332/423/332 333/425/333
f 311/398/311 310/416/310 325/426/325 326/427/326
f 319/400/319 318/415/318 333/425/333 334/428/334
f 535/399/535 311/398/311 326/427/326 536/429/536
f 320/401/320 319/400/319 334/428/334 335/430/335
f 313/403/313 312/402/312 327/431/327 328/432/328
f 321/404/321 320/401/320 335/430/335 336/433/336
f 314/405/314 313/403/313 328/432/328 329/434/329
f 322/406/322 321/404/321 336/433/336 337/435/337
f 315/407/315 314/405/314 329/434/329 330/417/330
f 323/408/323 322/406/322 337/435/337 338/422/338
f 335/430/335 334/428/334 349/436/349 350/437/350
f 328/432/328 327/431/327 342/438/342 343/439/343
f 336/433/336 335/430/335 350/437/350 351/440/351
f 329/434/329 328/432/328 343/439/343 344/441/344
f 337/435/337 336/433/336 351/440/351 352/442/352
f 330/417/330 329/434/329 344/441/344 345/443/345
f 338/422/338 337/435/337 352/442/352 353/444/353
f 331/418/331 330/417/330 345/443/345 346/445/346
f 324/420/324 82/446/82 339/447/339
f 308/448/308 338/422/338 353/444/353
f 332/423/332 331/418/331 346/445/346 347/449/347
f 504/424/504 324/420/324 339/447/339 505/450/505
f 333/425/333 332/423/332 347/449/347 348/451/348
f 326/427/326 325/426/325 340/452/340 341/453/341
f 334/428/334 333/425/333 348/451/348 349/436/349
f 536/429/536 326/427/326 341/453/341 537/454/537
f 308/455/308 353/444/353 368/456/368
f 347/449/347 346/445/346 361/457/361 362/458/362
f 505/450/505 339/447/339 354/459/354 506/460/506
f 348/451/348 347/449/347 362/458/362 363/461/363
f 341/453/341 340/452/340 355/462/355 356/463/356
f 349/436/349 348/451/348 363/461/363 364/464/364
f 537/454/537 341/453/341 356/463/356 538/465/538
f 350/437/350 349/436/349 364/464/364 365/466/365
f 343/439/343 342/438/342 357/467/357 358/468/358
f 351/440/351 350/437/350 365/466/365 366/469/366
f 344/441/344 343/439/343 358/468/358 359/470/359
f 352/442/352 351/440/351 366/469/366 367/471/367
f 345/443/345 344/441/344 359/470/359 360/472/360
f 353/444/353 352/442/352 367/471/367 368/456/368
f 346/445/346 345/443/345 360/472/360 361/457/361
f 339/447/339 82/473/82 354/459/354
f 366/474/366 365/475/365 380/476/380 381/477/381
f 359/478/359 358/479/358 373/480/373 374/481/374
f 367/482/367 366/474/366 381/477/381 382/483/382
f 360/484/360 359/478/359 374/481/374 375/485/375
f 368/486/368 367/482/367 382/483/382 383/487/383
f 361/488/361 360/484/360 375/485/375 376/489/376
f 354/490/354 82/491/82 369/492/369
f 308/493/308 368/486/368 383/487/383
f 362/494/362 361/488/361 376/489/376 377/495/377
f 506/496/506 354/490/354 369/492/369 507/497/507
f 363/498/363 362/494/362 377/495/377 378/499/378
f 356/500/356 355/501/355 370/502/370 371/503/371
f 364/504/364 363/498/363 378/499/378 379/505/379
f 538/506/538 356/500/356 371/503/371 539/507/539
f 365/475/365 364/504/364 379/505/379 380/476/380
f 358/479/358 357/508/357 372/509/372 373/480/373
f 507/497/507 369/492/369 384/510/384 508/511/508
f 378/499/378 377/495/377 392/512/392 393/513/393
f 371/503/371 370/502/370 385/514/385 386/515/386
f 379/505/379 378/499/378 393/513/393 394/516/394
f 539/507/539 371/503/371 386/515/386 540/517/540
f 380/476/380 379/505/379 394/516/394 395/518/395
f 373/480/373 372/509/372 387/519/387 388/520/388
f 381/477/381 380/476/380 395/518/395 396/521/396
f 374/481/374 373/480/373 388/520/388 389/522/389
f 382/483/382 381/477/381 396/521/396 397/523/397
f 375/485/375 374/481/374 389/522/389 390/524/390
f 383/487/383 382/483/382 397/523/397 398/525/398
f 376/489/376 375/485/375 390/524/390 391/526/391
f 369/492/369 82/527/82 384/510/384
f 308/528/308 383/487/383 398/525/398
f 377/495/377 376/489/376 391/526/391 392/512/392
f 389/522/389 388/520/388 403/529/403 404/530/404
f 397/523/397 396/521/396 411/531/411 412/532/412
f 390/524/390 389/522/389 404/530/404 405/533/405
f 398/525/398 397/523/397 412/532/412 413/534/413
f 391/526/391 390/524/390 405/533/405 406/535/406
f 384/510/384 82/536/82 399/537/399
f 308/538/308 398/525/398 413/534/413
f 392/512/392 391/526/391 406/535/406 407/539/407
f 508/511/508 384/510/384 399/537/399 509/540/509
f 393/513/393 392/512/392 407/539/407 408/541/408
f 386/515/386 385/514/385 400/542/400 401/543/401
f 394/516/394 393/513/393 408/541/408 409/544/409
f 540/517/540 386/515/386 401/543/401 541/545/541
f 395/518/395 394/516/394 409/544/409 410/546/410
f 388/520/388 387/519/387 402/547/402 403/529/403
f 396/521/396 395/518/395 410/546/410 411/531/411
f 408/541/408 407/539/407 422/548/422 423/549/423
f 401/543/401 400/542/400 415/550/415 416/551/416
f 409/544/409 408/541/408 423/549/423 424/552/424
f 541/545/541 401/543/401 416/551/416 542/553/542
f 410/546/410 409/544/409 424/552/424 425/554/425
f 403/529/403 402/547/402 417/555/417 418/556/418
f 411/531/411 410/546/410 425/554/425 426/557/426
f 404/530/404 403/529/403 418/556/418 419/558/419
f 412/532/412 411/531/411 426/557/426 427/559/427
f 405/533/405 404/530/404 419/558/419 420/560/420
f 413/534/413 412/532/412 427/559/427 428/561/428
f 406/535/406 405/533/405 420/560/420 421/562/421
f 399/537/399 82/563/82 414/564/414
f 308/565/308 413/534/413 428/561/428
f 407/539/407 406/535/406 421/562/421 422/548/422
f 509/540/509 399/537/399 414/564/414 510/566/510
f 427/559/427 426/557/426 441/567/441 442/568/442
f 420/560/420 419/558/419 434/569/434 435/570/435
f 428/561/428 427/559/427 442/568/442 443/571/443
f 421/562/421 420/560/420 435/570/435 436/572/436
f 414/564/414 82/573/82 429/574/429
f 308/575/308 428/561/428 443/571/443
f 422/548/422 421/562/421 436/572/436 437/576/437
f 510/566/510 414/564/414 429/574/429 511/577/511
f 423/549/423 422/548/422 437/576/437 438/578/438
f 416/551/416 415/550/415 430/579/430 431/580/431
f 424/552/424 423/549/423 438/578/438 439/581/439
f 542/553/542 416/551/416 431/580/431 543/582/543
f 425/554/425 424/552/424 439/581/439 440/583/440
f 418/556/418 417/555/417 432/584/432 433/585/433
f 426/557/426 425/554/425 440/583/440 441/567/441
f 419/558/419 418/556/418 433/585/433 434/569/434
f 431/580/431 430/579/430 445/586/445 446/587/446
f 439/581/439 438/578/438 453/588/453 454/589/454
f 543/582/543 431/580/431 446/587/446 544/590/544
f 440/583/440 439/581/439 454/589/454 455/591/455
f 433/585/433 432/584/432 447/592/447 448/593/448
f 441/567/441 440/583/440 455/591/455 456/594/456
f 434/569/434 433/585/433 448/593/448 449/595/449
f 442/568/442 441/567/441 456/594/456 457/596/457
f 435/570/435 434/569/434 449/595/449 450/597/450
f 443/571/443 442/568/442 457/596/457 458/598/458
f 436/572/436 435/570/435 450/597/450 451/599/451
f 429/574/429 82/600/82 444/601/444
f 308/602/308 443/571/443 458/598/458
f 437/576/437 436/572/436 451/599/451 452/603/452
f 511/577/511 429/574/429 444/601/444 512/604/512
f 438/578/438 437/576/437 452/603/452 453/588/453
f 450/597/450 449/595/449 464/605/464 465/606/465
f 458/598/458 457/596/457 472/607/472 473/608/473
f 451/599/451 450/597/450 465/606/465 466/609/466
f 444/601/444 82/610/82 459/611/459
f 308/612/308 458/598/458 473/608/473
f 452/603/452 451/599/451 466/609/466 467/613/467
f 512/604/512 444/601/444 459/611/459 513/614/513
f 453/588/453 452/603/452 467/613/467 468/615/468
f 446/587/446 445/586/445 460/616/460 461/617/461
f 454/589/454 453/588/453 468/615/468 469/618/469
f 544/590/544 446/587/446 461/617/461 545/619/545
f 455/591/455 454/589/454 469/618/469 470/620/470
f 448/593/448 447/592/447 462/621/462 463/622/463
f 456/594/456 455/591/455 470/620/470 471/623/471
f 449/595/449 448/593/448 463/622/463 464/605/464
f 457/596/457 456/594/456 471/623/471 472/607/472
f 469/618/469 468/615/468 478/2/478 6/1/6
f 545/619/545 461/617/461 1/6/1 546/5/546
f 470/620/470 469/618/469 6/1/6 479/9/479
f 463/622/463 462/621/462 476/12/476 2/11/2
f 471/623/471 470/620/470 479/9/479 480/15/480
f 464/605/464 463/622/463 2/11/2 477/17/477
f 472/607/472 471/623/471 480/15/480 481/19/481
f 465/606/465 464/605/464 477/17/477 3/21/3
f 473/608/473 472/607/472 481/19/481 482/23/482
f 466/609/466 465/606/465 3/21/3 4/25/4
f 459/611/459 82/624/82 474/27/474
f 308/625/308 473/608/473 482/23/482
f 467/613/467 466/609/466 4/25/4 5/31/5
f 513/614/513 459/611/459 474/27/474 514/33/514
f 468/615/468 467/613/467 5/31/5 478/2/478
f 461/617/461 460/616/460 475/35/475 1/6/1
f 460/616/460 513/614/513 514/33/514 475/35/475
f 445/586/445 512/604/512 513/614/513 460/616/460
f 430/579/430 511/577/511 512/604/512 445/586/445
f 415/550/415 510/566/510 511/577/511 430/579/430
f 400/542/400 509/540/509 510/566/510 415/550/415
f 385/514/385 508/511/508 509/540/509 400/542/400
f 370/502/370 507/497/507 508/511/508 385/514/385
f 355/501/355 506/496/506 507/497/507 370/502/370
f 340/452/340 505/450/505 506/460/506 355/462/355
f 325/426/325 504/424/504 505/450/505 340/452/340
f 310/416/310 503/414/503 504/424/504 325/426/325
f 294/389/294 502/387/502 503/414/503 310/416/310
f 279/378/279 501/377/501 502/387/502 294/389/294
f 264/352/264 500/350/500 501/377/501 279/378/279
f 249/322/249 499/340/499 500/350/500 264/352/264
f 234/315/234 498/313/498 499/340/499 249/322/249
f 219/286/219 497/302/497 498/313/498 234/315/234
f 204/279/204 496/277/496 497/302/497 219/286/219
f 189/251/189 495/249/495 496/277/496 204/279/204
f 174/242/174 494/240/494 495/249/495 189/251/189
f 159/216/159 493/214/493 494/240/494 174/242/174
f 144/205/144 492/203/492 493/214/493 159/216/159
f 129/179/129 491/177/491 492/203/492 144/205/144
f 114/169/114 490/167/490 491/177/491 129/179/129
f 99/142/99 489/140/489 490/167/490 114/169/114
f 84/131/84 488/130/488 489/140/489 99/142/99
f 68/106/68 487/104/487 488/130/488 84/131/84
f 53/77/53 486/93/486 487/104/487 68/106/68
f 38/69/38 485/67/485 486/93/486 53/77/53
f 23/41/23 484/38/484 485/67/485 38/69/38
f 8/36/8 483/34/483 484/38/484 23/41/23
f 475/35/475 514/33/514 483/34/483 8/36/8
f 462/621/462 545/619/545 546/5/546 476/12/476
f 447/592/447 544/590/544 545/619/545 462/621/462
f 432/584/432 543/582/543 544/590/544 447/592/447
f 417/555/417 542/553/542 543/582/543 432/584/432
f 402/547/402 541/545/541 542/553/542 417/555/417
f 387/519/387 540/517/540 541/545/541 402/547/402
f 372/509/372 539/507/539 540/517/540 387/519/387
f 357/508/357 538/506/538 539/507/539 372/509/372
f 342/438/342 537/454/537 538/465/538 357/467/357
f 327/431/327 536/429/536 537/454/537 342/438/342
f 312/402/312 535/399/535 536/429/536 327/431/327
f 296/394/296 534/392/534 535/399/535 312/402/312
f 281/365/281 533/363/533 534/392/534 296/394/296
f 266/357/266 532/355/532 533/363/533 281/365/281
f 251/328/251 531/326/531 532/355/532 266/357/266
f 236/320/236 530/318/530 531/326/531 251/328/251
f 221/291/221 529/289/529 530/318/530 236/320/236
f 206/283/206 528/282/528 529/289/529 221/291/221
f 191/256/191 527/254/527 528/282/528 206/283/206
f 176/227/176 526/245/526 527/254/527 191/256/191
f 161/221/161 525/219/525 526/245/526 176/227/176
f 146/191/146 524/207/524 525/219/525 161/221/161
f 131/184/131 523/182/523 524/207/524 146/191/146
f 116/155/116 522/152/522 523/182/523 131/184/131
f 101/147/101 521/145/521 522/152/522 116/155/116
f 86/118/86 520/116/520 521/145/521 101/147/101
f 70/111/70 519/109/519 520/116/520 86/118/86
f 55/82/55 518/80/518 519/109/519 70/111/70
f 40/74/40 517/72/517 518/80/518 55/82/55
f 25/46/25 516/44/516 517/72/517 40/74/40
f 10/13/10 515/8/515 516/44/516 25/46/25
f 476/12/476 546/5/546 515/8/515 10/13/10
usemtl Material.008
f 547/488/547 548/626/548 550/627/550 549/628/549
f 549/628/549 550/627/550 552/629/552 551/630/551
f 551/630/551 552/629/552 554/631/554 553/632/553
f 553/632/553 554/631/554 556/633/556 555/634/555
f 555/634/555 556/633/556 558/635/558 557/636/557
f 557/636/557 558/635/558 560/637/560 559/638/559
f 559/638/559 560/637/560 562/639/562 561/640/561
f 561/640/561 562/639/562 564/641/564 563/642/563
f 550/643/550 567/644/82 569/645/567 552/646/552
f 563/642/563 564/641/564 566/647/566 565/648/565
f 565/648/565 566/647/566 548/649/548 547/650/547
f 547/651/547 568/652/308 565/653/565
f 552/646/552 569/645/567 567/644/82 554/654/554
f 567/644/82 564/655/564 562/656/562
f 554/654/554 567/644/82 556/657/556
f 567/644/82 548/658/548 566/659/566
f 558/660/558 567/644/82 560/661/560
f 560/661/560 567/644/82 562/656/562
f 567/644/82 550/643/550 548/658/548
f 556/657/556 567/644/82 558/660/558
f 566/659/566 564/655/564 567/644/82
f 563/662/563 568/652/308 561/663/561
f 557/664/557 568/652/308 555/665/555
f 568/652/308 549/666/549 551/667/551
f 549/666/549 568/652/308 547/651/547
f 559/668/559 568/652/308 557/664/557
f 565/653/565 568/652/308 563/662/563
f 555/665/555 568/652/308 553/669/553
f 551/667/551 553/669/553 568/652/308
f 561/663/561 568/652/308 559/668/559
